<svg width="323" height="329" viewBox="0 0 323 329" fill="none" xmlns="http://www.w3.org/2000/svg">
<path opacity="0.7" d="M18.719 102.323C18.719 102.323 -1.9526 155.675 27.0974 209.397C56.1474 263.118 115.982 291.498 163.873 315.766C211.763 340.033 261.492 328.215 285.122 288.468C308.752 248.721 276.343 220.348 276.299 163.67C276.254 106.992 284.788 91.9866 254.055 44.1038C223.322 -3.77906 147.983 -14.3826 91.0104 21.1331C34.0374 56.6488 18.719 102.323 18.719 102.323Z" fill="white"/>
<path d="M13.7735 115.194C41.8152 87.1775 65.5638 110.682 75.5734 73.0616C98.1728 -11.9227 191.907 -11.115 204.23 49.3573C226.436 158.283 323.159 89.1115 322.439 167.123C321.698 250.418 260.38 315.321 150.423 321.775C51.9063 327.592 -32.6932 161.617 13.7735 115.194Z" fill="#0078FF"/>
<path opacity="0.7" d="M13.7735 115.194C41.8152 87.1775 65.5638 110.682 75.5734 73.0616C98.1728 -11.9227 191.907 -11.115 204.23 49.3573C226.436 158.283 323.159 89.1115 322.439 167.123C321.698 250.418 260.38 315.321 150.423 321.775C51.9063 327.592 -32.6932 161.617 13.7735 115.194Z" fill="white"/>
<path fill-rule="evenodd" clip-rule="evenodd" d="M92.2795 64.1292L90.9249 64.2918L86.8832 79.6106L88.2378 79.448L92.2795 64.1292ZM83.2317 67.4636C83.055 65.9849 83.725 65.0312 85.1606 64.8612C86.5961 64.6911 87.4648 65.4378 87.6415 66.9461L88.2084 71.7591C88.3777 73.2377 87.7078 74.1915 86.2722 74.3615C84.8366 74.5315 83.9679 73.7848 83.7912 72.2766L83.2317 67.4636ZM85.2563 72.2101C85.3373 72.8607 85.6391 73.0972 86.1177 73.0455C86.5962 72.9937 86.8538 72.6832 86.7581 72.0326L86.1765 67.0126C86.0956 66.362 85.7716 66.1254 85.3152 66.1845C84.8588 66.2437 84.579 66.5394 84.6747 67.19L85.2563 72.2101ZM91.0795 71.9735C90.9028 70.4948 91.5801 69.5337 93.0157 69.3711C94.4513 69.2084 95.32 69.9477 95.4967 71.4486L96.0562 76.2616C96.2329 77.7402 95.5629 78.694 94.12 78.864C92.677 79.0341 91.8157 78.2873 91.639 76.7791L91.0795 71.9735ZM93.9654 77.548C93.4869 77.6071 93.185 77.3631 93.1114 76.7125L92.5298 71.6925C92.4341 71.0493 92.7139 70.7388 93.1703 70.687C93.6268 70.6353 93.9507 70.8719 94.0243 71.5151L94.6133 76.5351C94.7016 77.1857 94.4439 77.4888 93.9654 77.548Z" fill="#263238"/>
<path fill-rule="evenodd" clip-rule="evenodd" d="M99.4722 82.1908L82.422 84.1943C81.615 84.2898 80.8836 83.7108 80.7876 82.9005L78.741 65.2454C78.6679 64.5801 78.8978 63.9171 79.3668 63.4415L86.4784 56.4105C87.1833 55.7086 88.2742 55.5804 89.1213 56.1L97.6538 61.2752C98.2234 61.6226 98.6011 62.2148 98.6771 62.8796L100.738 80.5347C100.843 81.3428 100.277 82.0835 99.4722 82.1908Z" stroke="#263238" stroke-linecap="round" stroke-linejoin="round"/>
<path fill-rule="evenodd" clip-rule="evenodd" d="M89.1655 58.3698C89.2196 58.8134 89.0015 59.2459 88.6134 59.4646C88.2253 59.6832 87.7441 59.6447 87.3953 59.3671C87.0466 59.0895 86.8994 58.6278 87.0228 58.1984C87.1462 57.769 87.5157 57.457 87.9581 57.4087C88.5558 57.3394 89.0963 57.7696 89.1655 58.3698Z" stroke="#263238" stroke-linecap="round" stroke-linejoin="round"/>
<path d="M88.0833 46.0232C88.0833 46.0232 91.4108 58.8875 88.0833 58.5178" stroke="#263238" stroke-linecap="round" stroke-linejoin="round"/>
<path d="M87.2367 55.9301C87.8845 52.3517 91.1459 46.3188 91.1459 46.3188" stroke="#263238" stroke-linecap="round" stroke-linejoin="round"/>
<path d="M88.0833 58.4954C87.6845 58.4697 87.3452 58.1942 87.2367 57.8079" stroke="#263238" stroke-linecap="round" stroke-linejoin="round"/>
<path d="M102.932 50.7771C105.916 53.1991 108.204 56.3765 109.558 59.9817" stroke="#263238" stroke-linecap="round" stroke-linejoin="round"/>
<path d="M68.4711 62.1921C70.2061 55.4884 75.0258 50.0204 81.4411 47.4773C87.8565 44.9341 95.0957 45.6217 100.922 49.3278" stroke="#263238" stroke-linecap="round" stroke-linejoin="round"/>
<path d="M75.1925 83.9876C71.2998 80.5936 68.7521 75.907 68.0146 70.7832" stroke="#263238" stroke-linecap="round" stroke-linejoin="round"/>
<path d="M88.525 89.3106C84.5866 89.1524 80.767 87.9122 77.4821 85.7249" stroke="#263238" stroke-linecap="round" stroke-linejoin="round"/>
<path d="M110.729 64.5063C112.457 76.3532 104.296 87.3646 92.5004 89.1037" stroke="#263238" stroke-linecap="round" stroke-linejoin="round"/>
<path fill-rule="evenodd" clip-rule="evenodd" d="M34.6332 136.534L61.9437 141.829L58.7629 158.235C58.6336 158.902 57.9886 159.337 57.3222 159.208L32.4178 154.38C31.7514 154.25 31.3159 153.605 31.4451 152.939L34.626 136.532L34.6332 136.534Z" stroke="#263238" stroke-width="0.998248" stroke-linecap="round" stroke-linejoin="round"/>
<path fill-rule="evenodd" clip-rule="evenodd" d="M62.8938 142.203L34.1458 136.661L34.9881 132.291C35.1168 131.624 35.7625 131.187 36.4302 131.315L62.7893 136.396C63.4342 136.536 63.8537 137.16 63.7404 137.811L62.898 142.181L62.8938 142.203Z" stroke="#263238" stroke-linecap="round" stroke-linejoin="round"/>
<path fill-rule="evenodd" clip-rule="evenodd" d="M47.677 133.459L51.5882 134.213L47.107 157.462L43.1957 156.708L47.677 133.459Z" stroke="#263238" stroke-linecap="round" stroke-linejoin="round"/>
<path d="M49.6312 133.837C49.6312 133.837 56.4183 128.882 59.5559 130.38C62.6936 131.879 61.1433 136.055 59.5559 135.75" stroke="#263238" stroke-linecap="round" stroke-linejoin="round"/>
<path d="M52.3163 134.349C52.3163 134.349 57.835 131.604 58.6361 132.865C59.4372 134.126 57.0561 135.291 55.224 134.935" stroke="#263238" stroke-linecap="round" stroke-linejoin="round"/>
<path d="M49.8165 133.496C49.8165 133.496 52.6797 128.303 52.3088 126.627H54.2152C54.2152 126.627 54.8382 128.6 52.613 131.975" stroke="#263238" stroke-linecap="round" stroke-linejoin="round"/>
<path d="M49.6311 133.837C49.6311 133.837 45.1805 126.716 41.7017 126.946C38.2228 127.176 38.1264 131.619 39.7063 131.923" stroke="#263238" stroke-linecap="round" stroke-linejoin="round"/>
<path d="M46.9459 133.318C46.9459 133.318 42.844 128.711 41.6349 129.572C40.4258 130.432 42.206 132.405 44.0382 132.754" stroke="#263238" stroke-linecap="round" stroke-linejoin="round"/>
<path d="M49.5866 133.451C49.5866 133.451 48.8449 127.554 49.8314 126.152L48.0512 125.41C48.0512 125.41 46.7457 127.013 47.5616 130.974" stroke="#263238" stroke-linecap="round" stroke-linejoin="round"/>
<path d="M69.8292 125.499C72.8872 129.363 74.8611 133.972 75.5482 138.851" stroke="#263238" stroke-linecap="round" stroke-linejoin="round"/>
<path d="M23.3507 129.95C27.4278 122.068 35.0256 116.608 43.7965 115.257C52.5674 113.907 61.4557 116.828 67.7152 123.118" stroke="#263238" stroke-linecap="round" stroke-linejoin="round"/>
<path d="M25.5759 159.101C21.6566 153.75 19.7878 147.17 20.3095 140.557" stroke="#263238" stroke-linecap="round" stroke-linejoin="round"/>
<path d="M40.8339 169.538C35.9249 168.226 31.4722 165.588 27.9644 161.912" stroke="#263238" stroke-linecap="round" stroke-linejoin="round"/>
<path d="M75.7262 144.859C74.539 160.154 61.1796 171.59 45.8853 170.406" stroke="#263238" stroke-linecap="round" stroke-linejoin="round"/>
<path fill-rule="evenodd" clip-rule="evenodd" d="M185.637 71.1127L183.304 69.9237C183.65 68.8989 183.767 67.8105 183.646 66.7356C184.389 67.0923 185.176 67.4787 185.875 67.7983C185.838 68.7569 185.778 69.8865 185.637 71.1127Z" stroke="#263238" stroke-linecap="round" stroke-linejoin="round"/>
<path fill-rule="evenodd" clip-rule="evenodd" d="M189.033 69.3292C189.773 69.7062 190.564 69.9717 191.382 70.1169C192.238 74.6862 191.566 79.4102 189.472 83.5603C188.87 84.7344 182.546 81.4944 183.14 80.3202C184.495 77.4173 185.34 74.3025 185.637 71.1127C185.778 69.8866 185.86 68.757 185.897 67.7983C187.22 68.4226 188.379 68.9948 189.033 69.3292Z" stroke="#263238" stroke-linecap="round" stroke-linejoin="round"/>
<path fill-rule="evenodd" clip-rule="evenodd" d="M196.576 54.5929C200.223 56.4581 201.957 60.7097 200.656 64.5936C199.354 68.4774 195.408 70.8256 191.374 70.117C190.557 69.9717 189.765 69.7063 189.026 69.3293C188.372 68.9948 187.213 68.4226 185.89 67.7984C185.147 67.4491 184.404 67.0924 183.66 66.7357C181.832 65.896 180.064 65.1231 179.15 64.8258L187.146 49.22C188.81 50.4387 194.703 53.6342 196.576 54.5929Z" stroke="#263238" stroke-linecap="round" stroke-linejoin="round"/>
<path fill-rule="evenodd" clip-rule="evenodd" d="M179.38 41.8331C181.62 44.6279 184.227 47.1075 187.131 49.205L179.135 64.8108C175.732 63.6963 172.196 63.0439 168.619 62.8713L165.521 62.7078L177.411 39.4253L179.38 41.8331Z" stroke="#263238" stroke-linecap="round" stroke-linejoin="round"/>
<path fill-rule="evenodd" clip-rule="evenodd" d="M161.916 63.3542L175.857 36.1183C176.082 35.6904 176.608 35.5217 177.039 35.7393L178.065 36.2669C178.495 36.4885 178.668 37.0152 178.451 37.4485L177.433 39.4326L165.543 62.7151L164.532 64.6993C164.426 64.9063 164.241 65.0626 164.02 65.1337C163.798 65.2048 163.557 65.1849 163.351 65.0783L162.318 64.5507C162.101 64.4501 161.936 64.265 161.86 64.0387C161.784 63.8125 161.804 63.565 161.916 63.3542Z" stroke="#263238" stroke-linecap="round" stroke-linejoin="round"/>
<path d="M162.332 46.3736L156.959 43.624L162.332 46.3736Z" fill="#757575"/>
<path d="M162.332 46.3736L156.959 43.624" stroke="#263238" stroke-linecap="round" stroke-linejoin="round"/>
<path d="M168.627 37.7532L165.238 31.823L168.627 37.7532Z" fill="#757575"/>
<path d="M168.627 37.7532L165.238 31.823" stroke="#263238" stroke-linecap="round" stroke-linejoin="round"/>
<path d="M159.025 56.5175L152.241 57.2383L159.025 56.5175Z" fill="#757575"/>
<path d="M159.025 56.5175L152.241 57.2383" stroke="#263238" stroke-linecap="round" stroke-linejoin="round"/>
<path d="M203.941 30.8642C199.25 26.5194 193.482 23.5095 187.235 22.1472" stroke="#263238" stroke-linecap="round" stroke-linejoin="round"/>
<path d="M193.537 90.3672C204.107 85.8932 211.906 76.6409 214.527 65.4658C217.147 54.2906 214.274 42.5359 206.794 33.8293" stroke="#263238" stroke-linecap="round" stroke-linejoin="round"/>
<path d="M156.15 84.5635C162.658 90.1581 170.961 93.228 179.543 93.2136" stroke="#263238" stroke-linecap="round" stroke-linejoin="round"/>
<path d="M144.222 63.8669C145.423 70.3342 148.383 76.3456 152.776 81.2415" stroke="#263238" stroke-linecap="round" stroke-linejoin="round"/>
<path d="M179.543 21.3149C159.687 21.3149 143.59 37.4116 143.59 57.2679" stroke="#263238" stroke-linecap="round" stroke-linejoin="round"/>
<path fill-rule="evenodd" clip-rule="evenodd" d="M116.258 115.247C113.221 112.553 110.071 113.763 108.463 114.676C108.141 112.85 106.966 109.704 102.956 109.169C98.5724 108.59 94.9814 112.828 96.156 118.735C97.0088 122.988 99.747 126.899 101.213 128.717C101.385 128.94 101.55 129.133 101.685 129.288H102.433C104.797 129.192 109.555 128.724 113.355 126.602C118.615 123.633 119.55 118.171 116.258 115.247Z" stroke="#263238" stroke-linecap="round" stroke-linejoin="round"/>
<path d="M99.2009 132.057C99.2009 132.057 98.9989 132.42 98.7221 133.059" stroke="#263238" stroke-linecap="round" stroke-linejoin="round"/>
<path d="M97.9589 135.129C96.7619 139.01 95.9389 145.66 102.313 149.689C118.069 159.656 123.373 136.146 111.291 138.261C102.994 139.745 111.769 161.497 124.757 157.111" stroke="#263238" stroke-linecap="round" stroke-linejoin="round" stroke-dasharray="2.98 2.98"/>
<path d="M125.842 156.702C126.171 156.554 126.508 156.391 126.844 156.213" stroke="#263238" stroke-linecap="round" stroke-linejoin="round"/>
<path d="M105.943 299.903C105.943 299.903 97.1198 305.908 93.5652 305.507C93.1748 305.487 92.8041 305.329 92.5189 305.062C90.2036 302.672 88.341 298.471 88.341 298.471C88.341 298.471 89.4467 296.942 92.8528 301.002L95.0123 299.02L90.5598 294.522C90.5598 294.522 93.0755 292.525 97.3499 295.071C97.2014 294.759 94.4483 288.762 96.5261 280.597L86.137 270.569L95.3537 262.538L96.0957 261.914C96.0957 261.914 96.6746 262.486 97.5799 263.399C98.4852 264.312 99.7394 265.41 101.097 266.605C104.348 269.463 108.281 272.543 110.002 272.543C113.104 272.44 105.943 299.903 105.943 299.903Z" fill="white"/>
<path opacity="0.4" d="M99.1234 295.969C99.1234 295.969 94.0921 301.165 93.5652 305.507C93.1748 305.487 92.8041 305.329 92.5189 305.062C90.2036 302.672 88.341 298.47 88.341 298.47C88.341 298.47 89.4467 296.941 92.8528 301.001L95.0123 299.02L90.5598 294.522C90.5598 294.522 93.0755 292.525 97.3499 295.071C97.2014 294.759 94.4483 288.762 96.5261 280.597L86.137 270.569L95.3537 262.538L97.5799 263.376C98.4927 264.237 99.7394 265.388 101.097 266.583C99.1457 269.441 94.9678 275.356 94.9678 275.356L98.5817 280.255C98.5817 280.255 96.3555 292.607 99.1234 295.969Z" fill="#0078FF"/>
<path fill-rule="evenodd" clip-rule="evenodd" d="M105.943 299.903C105.943 299.903 97.1198 305.908 93.5652 305.507C93.1748 305.487 92.8041 305.329 92.5189 305.062C90.2036 302.672 88.341 298.471 88.341 298.471C88.341 298.471 89.4467 296.942 92.8528 301.002L95.0123 299.02L90.5598 294.522C90.5598 294.522 93.0755 292.525 97.3499 295.071C97.2014 294.759 94.4483 288.762 96.5261 280.597L86.137 270.569L95.3537 262.538L96.0957 261.914C96.0957 261.914 96.6746 262.486 97.5799 263.399C98.4852 264.312 99.7394 265.41 101.097 266.605C104.348 269.463 108.281 272.543 110.002 272.543C113.104 272.44 105.943 299.903 105.943 299.903Z" stroke="#263238" stroke-linecap="round" stroke-linejoin="round"/>
<path d="M95.042 299.02C95.5311 297.557 96.3225 296.215 97.3647 295.078" stroke="#263238" stroke-linecap="round" stroke-linejoin="round"/>
<path d="M259.629 229.997C258.237 232.028 256.554 233.844 254.635 235.386C238.413 248.821 201.012 255.427 201.012 255.427C201.012 255.427 199.758 257.305 197.828 259.977C194.37 264.779 188.708 272.157 184.092 275.854C182.14 277.42 180.382 278.326 179.039 278.081L186.059 304.008L189.198 315.26C189.198 315.26 156.947 329.363 101.788 313.241C101.788 313.241 101.157 306.042 101.624 304.505C101.624 304.431 101.669 304.357 101.699 304.275C102.26 303.252 102.993 302.333 103.865 301.558C103.865 301.558 103.554 296.927 103.398 292.213C103.22 289.208 103.257 286.194 103.509 283.195C103.903 280.82 105.639 275.074 106.515 272.254L107.027 270.613L104.281 244.902L103.494 237.479L103.45 237.093C103.45 237.041 103.45 236.982 103.45 236.907L103.019 232.936L88.8308 237.271C88.8308 237.271 89.5729 238.934 90.5969 241.265C92.4596 245.533 95.1979 252.027 95.7915 254.625C95.8361 254.837 95.8956 255.045 95.9696 255.249C97.2831 258.997 102.285 262.404 102.285 262.404L88.8456 278.11L84.8755 275.334C84.3672 275.71 83.8314 276.048 83.2726 276.344C80.6604 277.761 75.1838 279.847 69.1729 276.663C66.5682 275.198 64.3063 273.194 62.5387 270.784C52.0011 257.097 47.415 245.896 48.9066 232.78C50.3982 219.665 109.409 179.189 121.119 179.612L138.536 183.457C138.914 183.146 139.931 182.344 140.717 182.381C143.886 182.544 143.968 186.226 143.968 186.226L183.001 192.565C183.001 192.565 187.046 190.538 187.751 190.568C188.786 190.638 189.716 191.227 190.222 192.134C190.222 192.134 200.329 186.078 203.579 187.488C214.28 192.105 267.532 217.987 259.629 229.997Z" fill="#0078FF"/>
<path opacity="0.2" d="M124.02 294.143C119.585 299.02 113.629 302.251 107.123 303.31C105.067 303.637 103.264 303.963 101.684 304.29C102.245 303.267 102.978 302.348 103.85 301.573C103.85 301.573 103.539 296.942 103.383 292.228C107.962 295.249 115.946 298.738 124.02 294.143Z" fill="black"/>
<path opacity="0.2" d="M106.5 272.291L107.012 270.651L104.266 244.939C108.37 250.825 123.004 270.873 133.089 273.041C143.634 275.297 115.442 279.298 106.5 272.291Z" fill="black"/>
<path opacity="0.2" d="M186.044 304.045C175.024 302.79 159.447 300.014 157.889 294.247C155.463 285.236 167.269 279.832 184.092 275.891C182.14 277.457 180.382 278.363 179.039 278.118L186.044 304.045Z" fill="black"/>
<path opacity="0.2" d="M254.627 235.393C238.405 248.828 201.004 255.434 201.004 255.434C201.004 255.434 199.75 257.312 197.821 259.984C192.318 246.843 191.478 232.214 195.439 218.529C195.439 218.529 198.318 234.116 210.28 237.828C210.28 237.828 201.123 231.006 204.344 214.588C204.344 214.588 207.468 233.886 227.794 239.246C237.656 241.895 247.31 239.015 254.627 235.393Z" fill="black"/>
<path opacity="0.2" d="M103.435 237.145L102.99 232.989L88.8011 237.323C88.8011 237.323 89.5431 238.986 90.5672 241.317C85.1426 240.76 74.8499 245.77 73.054 240.307C70.8871 233.686 84.1853 235.965 84.1853 235.965L96.7562 228.654C94.3815 218.485 100.43 210.839 100.43 210.839L101.58 217.935C102.129 204.449 107.405 197.071 107.405 197.071C103.042 207.737 103.16 234.02 103.435 237.145Z" fill="black"/>
<path opacity="0.2" d="M102.277 262.426L88.8382 278.133L84.868 275.357C84.3598 275.733 83.824 276.07 83.2651 276.366C80.653 277.784 75.1764 279.869 69.1655 276.685C73.5216 270.658 82.523 261.788 93.2165 258.366C90.5914 262.274 88.2265 266.35 86.137 270.569L88.8976 273.286C88.8976 273.286 95.7841 265.433 102.277 262.426Z" fill="black"/>
<path opacity="0.2" d="M134.907 193.248C134.907 194.636 134.031 210.32 145.459 214.499C156.887 218.678 167.024 211.611 167.024 211.611C167.024 211.611 149.504 228.52 138.825 219.479C128.146 210.439 134.907 193.248 134.907 193.248Z" fill="black"/>
<path d="M101.765 313.271C101.765 313.271 101.149 306.071 101.609 304.542C101.995 303.251 103.836 301.573 103.836 301.573C103.836 301.573 102.864 286.98 103.487 283.217C104.021 279.988 107.004 270.599 107.004 270.599L102.982 232.936L88.7936 237.279C88.7936 237.279 94.8342 250.639 95.7692 254.603C96.7042 258.567 102.27 262.374 102.27 262.374L88.8307 278.073L84.8606 275.304C84.8606 275.304 73.1356 284.479 62.5461 270.762C51.9565 257.045 47.4076 245.874 48.8917 232.721C50.3759 219.568 109.409 179.137 121.119 179.553L138.536 183.405C138.907 183.094 139.931 182.292 140.71 182.329C143.879 182.492 143.96 186.174 143.96 186.174L182.994 192.513C182.994 192.513 187.046 190.486 187.751 190.516C188.784 190.588 189.71 191.177 190.214 192.082C190.214 192.082 200.322 186.033 203.572 187.436C214.258 192.053 267.502 217.935 259.607 229.945C248.394 247.017 200.982 255.412 200.982 255.412C200.982 255.412 185.213 279.164 179.001 278.066L189.161 315.245" stroke="#263238" stroke-linecap="round" stroke-linejoin="round"/>
<path d="M218.376 232.602C236.29 244.434 250.731 242.252 262.033 227.021C262.033 227.021 271.443 214.885 270.775 201.784C270.107 188.683 266.983 146.003 226.205 156.914C219.49 158.711 203.824 179.694 202.511 185.462C201.902 188.097 195.617 201.509 189.509 215.397" fill="#0078FF"/>
<path d="M218.376 232.602C236.29 244.434 250.731 242.252 262.033 227.021C262.033 227.021 271.443 214.885 270.775 201.784C270.107 188.683 266.983 146.003 226.205 156.914C219.49 158.711 203.824 179.694 202.511 185.462C201.902 188.097 195.617 201.509 189.509 215.397" stroke="#263238" stroke-linecap="round" stroke-linejoin="round"/>
<path d="M169.911 107.212C169.911 107.212 181.324 105.483 189.25 112.579C199.275 121.553 210.533 145.75 194.503 185.847C194.503 185.847 170.824 170.126 130.41 180.651C130.41 180.651 133.89 171.247 127.783 141.638C125.022 128.241 131.968 97.3774 169.911 107.212Z" fill="#263238"/>
<path d="M152.613 207.833C169.503 210.572 187.446 191.867 187.446 191.867C187.446 191.867 178.267 190.739 177.443 186.426C174.809 172.821 185.406 155.994 185.406 155.994C185.406 155.994 144.398 157.129 151.567 166.385C152.9 168.079 153.992 169.95 154.809 171.945C157.295 178.054 155.552 182.663 154.253 183.821C154.159 183.898 154.057 183.965 153.949 184.021C151.47 185.15 141.281 183.465 141.281 183.465C141.281 183.465 137.2 205.332 152.613 207.833Z" fill="white" stroke="#263238" stroke-linecap="round" stroke-linejoin="round"/>
<path d="M181.636 197.048C181.636 197.048 173.844 200.166 162.438 199.238L157.303 201.754" stroke="#263238" stroke-linecap="round" stroke-linejoin="round"/>
<path d="M152.183 201.361L151.811 197.991C151.811 197.991 143.396 195.356 140.792 190.353" stroke="#263238" stroke-linecap="round" stroke-linejoin="round"/>
<path d="M154.253 183.843C166.809 187.124 172.709 171.017 172.709 171.017C172.709 171.017 162.661 168.048 154.809 171.997C157.295 178.106 155.574 182.715 154.253 183.843Z" fill="#263238"/>
<path d="M186.133 147.539C189.183 130.386 185.792 109.803 159.685 111.51C141.036 112.728 141.192 133.177 142.424 139.286C144.502 149.551 141.526 153.589 144.725 162.214C147.025 168.412 152.361 175.345 158.646 177.942C162.512 179.538 178.163 168.553 179.321 163.528" fill="white"/>
<path d="M186.133 147.539C189.183 130.386 185.792 109.803 159.685 111.51C141.036 112.728 141.192 133.177 142.424 139.286C144.502 149.551 141.526 153.589 144.725 162.214C147.025 168.412 152.361 175.345 158.646 177.942C162.512 179.538 178.163 168.553 179.321 163.528" stroke="#263238" stroke-linecap="round" stroke-linejoin="round"/>
<path d="M153.333 142.485C153.177 144.414 152.947 149.165 148.88 152.698C146.238 154.977 152.294 157.308 152.294 157.308" stroke="#263238" stroke-linecap="round" stroke-linejoin="round"/>
<path d="M148.999 135.678C148.999 135.678 143.24 132.872 139.352 137.504" stroke="#263238" stroke-linecap="round" stroke-linejoin="round"/>
<path d="M158.661 135.3C162.709 134.125 167.03 134.297 170.972 135.79" stroke="#263238" stroke-linecap="round" stroke-linejoin="round"/>
<path d="M164.642 143.413C164.82 145.068 165.933 146.307 167.128 146.174C168.323 146.04 169.146 144.6 168.968 142.945C168.79 141.29 167.677 140.058 166.482 140.184C165.288 140.31 164.464 141.757 164.642 143.413Z" fill="#263238"/>
<path d="M152.576 162.763C157.154 162.131 161.544 160.527 165.451 158.057C165.451 158.057 165.993 165.257 159.967 166.749C155.344 167.9 153.555 162.622 153.555 162.622" stroke="#263238" stroke-linecap="round" stroke-linejoin="round"/>
<path d="M169.51 118.042C169.51 118.042 167.863 138.373 185.799 145.758L194.207 126.214L181.487 112.111L162.334 106.574C133.712 108.363 121.393 126.148 137.281 173.541C137.281 173.563 132.836 117.122 169.51 118.042Z" fill="#263238"/>
<path d="M181.866 146.619C181.614 144.333 187.394 138.513 189.346 142.247C192.678 148.616 190.251 154.123 186.808 156.35C185.265 157.322 183.306 159.148 181.933 157.426" fill="white"/>
<path d="M181.866 146.619C181.614 144.333 187.394 138.513 189.346 142.247C192.678 148.616 190.251 154.123 186.808 156.35C185.265 157.322 183.306 159.148 181.933 157.426" stroke="#263238" stroke-linecap="round" stroke-linejoin="round"/>
<path d="M147.173 144.207C147.359 145.862 148.472 147.102 149.667 146.968C150.862 146.834 151.685 145.394 151.507 143.739C151.329 142.084 150.208 140.844 149.014 140.978C147.819 141.111 146.988 142.514 147.173 144.207Z" fill="#263238"/>
<g opacity="0.2">
<path d="M134.744 140.837C134.528 142.21 134.38 143.606 134.298 144.994" stroke="white" stroke-linecap="round" stroke-linejoin="round"/>
<path d="M166.542 114.346C152.041 113.967 138.565 123.208 135.374 137.719" stroke="white" stroke-linecap="round" stroke-linejoin="round"/>
<path d="M163.952 110.204C163.952 110.204 143.04 105.283 135.204 119.155" stroke="white" stroke-linecap="round" stroke-linejoin="round"/>
<path d="M180.916 134.372C182.177 136.167 183.695 137.768 185.42 139.122" stroke="white" stroke-linecap="round" stroke-linejoin="round"/>
<path d="M172.62 112.913C173.688 119.557 175.935 125.957 179.254 131.811" stroke="white" stroke-linecap="round" stroke-linejoin="round"/>
<path d="M193.628 175.827C193.257 177.49 192.819 179.137 192.329 180.77" stroke="white" stroke-linecap="round" stroke-linejoin="round"/>
<path d="M192.418 148.185C195.81 155.719 195.58 165.094 194.184 173.021" stroke="white" stroke-linecap="round" stroke-linejoin="round"/>
<path d="M189.932 161.279C190.267 167.05 188.12 172.69 184.033 176.777" stroke="white" stroke-linecap="round" stroke-linejoin="round"/>
<path d="M180.293 115.34C183.847 120.15 186.489 125.309 190.608 129.703C194.949 134.327 199.29 139.627 200.106 146.144" stroke="white" stroke-linecap="round" stroke-linejoin="round"/>
<path d="M175.276 110.337C176.294 111.005 177.231 111.79 178.066 112.676" stroke="white" stroke-linecap="round" stroke-linejoin="round"/>
</g>
<path d="M246.806 221.959C246.39 222.048 245.974 222.122 245.544 222.181C234.324 223.784 221.738 214.477 217.493 203.306C214.139 194.48 217.07 184.467 218.673 180.184C219.178 178.841 219.541 178.061 219.541 178.061C226.309 168.412 265.655 187.302 266.115 197.724C266.575 208.145 258.3 219.435 246.806 221.959Z" fill="#263238" stroke="#263238" stroke-linecap="round" stroke-linejoin="round"/>
<path d="M259.117 199.134C259.117 199.134 256.89 215.701 245.544 222.181C234.324 223.784 221.738 214.477 217.493 203.305C214.139 194.48 217.07 184.467 218.673 180.184C231.934 172.606 259.117 199.134 259.117 199.134Z" fill="white"/>
<path opacity="0.4" d="M259.117 199.134C259.117 199.134 256.89 215.701 245.544 222.181C234.324 223.784 221.738 214.477 217.493 203.305C214.139 194.48 217.07 184.467 218.673 180.184C231.934 172.606 259.117 199.134 259.117 199.134Z" fill="#0078FF"/>
<path fill-rule="evenodd" clip-rule="evenodd" d="M259.117 199.134C259.117 199.134 256.89 215.701 245.544 222.181C234.324 223.784 221.738 214.477 217.493 203.305C214.139 194.48 217.07 184.467 218.673 180.184C231.934 172.606 259.117 199.134 259.117 199.134Z" stroke="#263238" stroke-linecap="round" stroke-linejoin="round"/>
<path d="M212.714 207.855C212.714 207.855 225.493 226.204 240.416 227.733C255.34 229.262 264.905 216.688 265.491 207.21" stroke="#263238" stroke-linecap="round" stroke-linejoin="round"/>
<path d="M205.531 125.057C206.652 121.917 214.711 122.971 217.271 132.769C219.831 142.566 229.886 166.386 229.886 166.386C229.886 166.386 269.959 107.443 277.112 105.171C284.266 102.9 281.454 113.114 271.859 127.283C271.859 127.283 280.845 125.702 283.205 127.283C285.565 128.864 284.415 138.417 285.669 141.728C287.776 147.317 283.094 148.497 283.094 148.497C285.391 148.549 287.6 149.39 289.349 150.88C291.924 153.292 290.633 163.261 291.368 166.081C292.103 168.902 287.19 171.277 287.19 171.277C287.19 171.277 298.997 177.712 296.332 179.331C291.835 182.047 289.275 179.264 289.275 179.264C289.275 179.264 271.131 202.051 257.447 207.128C243.763 212.205 217.13 192.031 214.265 181.045C211.401 170.06 214.822 170.735 212.648 152.453C210.473 134.171 205.531 125.057 205.531 125.057Z" fill="white" stroke="#263238" stroke-linecap="round" stroke-linejoin="round"/>
<path d="M208.989 108.048C208.332 105.526 209.844 102.948 212.366 102.29L262.775 89.1473C265.298 88.4896 267.876 90.0016 268.534 92.5243L292.862 185.878C293.519 188.4 292.008 190.978 289.485 191.635L239.076 204.779C236.553 205.436 233.975 203.924 233.318 201.402L208.989 108.048Z" fill="white" stroke="#263238" stroke-linecap="round" stroke-linejoin="round"/>
<path d="M233.723 99.8419C233.8 100.138 233.713 100.452 233.495 100.666C233.278 100.881 232.962 100.963 232.668 100.882C232.373 100.8 232.145 100.568 232.068 100.272C232.007 100.053 232.037 99.818 232.152 99.621C232.266 99.424 232.455 99.2815 232.676 99.2259C233.135 99.1083 233.603 99.3836 233.723 99.8419Z" fill="#0078FF" stroke="#263238" stroke-linecap="round" stroke-linejoin="round"/>
<path d="M244.594 97.0064C244.63 97.1442 244.61 97.2907 244.537 97.4134C244.465 97.536 244.347 97.6246 244.208 97.6596C243.923 97.7319 243.633 97.5593 243.56 97.2739C243.487 96.9885 243.658 96.6978 243.944 96.6241C244.229 96.5503 244.52 96.7213 244.594 97.0064Z" fill="#0078FF" stroke="#263238" stroke-linecap="round" stroke-linejoin="round"/>
<path d="M235.472 100.342C235.43 100.179 235.528 100.013 235.691 99.9706L241.932 98.3618C242.095 98.3198 242.261 98.4179 242.303 98.581C242.345 98.744 242.247 98.9102 242.084 98.9522L235.843 100.561C235.68 100.603 235.514 100.505 235.472 100.342Z" fill="#0078FF" stroke="#263238" stroke-width="1.0017" stroke-linecap="round" stroke-linejoin="round"/>
<path d="M266.642 92.3375L291.375 187.258C291.662 188.366 290.999 189.498 289.891 189.789L237.804 203.365C236.696 203.652 235.564 202.988 235.274 201.88L210.54 106.96C210.253 105.851 210.917 104.72 212.024 104.429L222.718 101.638C223.42 101.454 224.163 101.726 224.58 102.321L225.359 103.427C225.776 104.022 226.52 104.294 227.222 104.11L250.694 97.9935C251.389 97.8119 251.902 97.2226 251.985 96.509L252.126 95.1655C252.206 94.4501 252.72 93.8588 253.418 93.681L264.111 90.8901C265.208 90.6005 266.335 91.2448 266.642 92.3375Z" fill="#0078FF" stroke="#263238" stroke-linecap="round" stroke-linejoin="round"/>
<ellipse cx="248.273" cy="136.837" rx="22.0072" ry="22.0036" transform="rotate(-66.53 248.273 136.837)" fill="white" stroke="#263238" stroke-linecap="round" stroke-linejoin="round"/>
<path fill-rule="evenodd" clip-rule="evenodd" d="M241.544 150.575C240.592 150.867 239.574 150.393 239.184 149.477C238.987 148.984 239.005 148.431 239.235 147.952C239.466 147.474 239.886 147.114 240.394 146.96C241.364 145.477 241.636 143.643 241.136 141.943L239.748 137.133C238.553 133.055 240.575 128.724 244.468 127.023C243.465 126.769 242.755 125.875 242.737 124.839C242.72 123.804 243.397 122.885 244.391 122.597C245.386 122.308 246.45 122.722 246.988 123.606C247.527 124.491 247.406 125.626 246.694 126.378C250.867 125.771 254.846 128.338 256.015 132.39L257.388 137.148C257.814 138.624 258.785 139.884 260.104 140.673L260.712 141.045C261.228 140.893 261.783 140.968 262.239 141.251C262.696 141.535 263.01 142 263.102 142.529C263.279 143.527 262.663 144.494 261.684 144.756L254.457 146.842C254.524 146.983 254.581 147.13 254.627 147.28C254.925 148.308 254.652 149.418 253.911 150.191C253.169 150.964 252.071 151.282 251.031 151.026C249.991 150.77 249.167 149.979 248.869 148.95C248.825 148.799 248.796 148.645 248.78 148.489L241.544 150.575ZM245.403 126.146C246.112 125.942 246.52 125.201 246.316 124.492C246.219 124.151 245.99 123.862 245.679 123.69C245.368 123.519 245.001 123.479 244.661 123.579C243.952 123.784 243.544 124.525 243.749 125.234C243.954 125.943 244.694 126.351 245.403 126.146Z" fill="#0078FF"/>
<path d="M239.184 149.477L238.72 149.663L238.724 149.672L239.184 149.477ZM241.544 150.575L241.406 150.095L241.398 150.097L241.544 150.575ZM239.235 147.952L238.785 147.736H238.785L239.235 147.952ZM240.394 146.96L240.539 147.439C240.651 147.405 240.748 147.332 240.812 147.234L240.394 146.96ZM241.136 141.943L240.656 142.081L240.656 142.084L241.136 141.943ZM239.748 137.133L240.229 136.994L240.228 136.992L239.748 137.133ZM244.468 127.023L244.668 127.481C244.864 127.396 244.984 127.195 244.966 126.982C244.949 126.769 244.798 126.591 244.591 126.539L244.468 127.023ZM242.737 124.839L242.238 124.848V124.848L242.737 124.839ZM244.391 122.597L244.252 122.117L244.391 122.597ZM246.988 123.606L246.561 123.866V123.866L246.988 123.606ZM246.694 126.378L246.331 126.034C246.185 126.188 246.152 126.419 246.25 126.608C246.348 126.797 246.556 126.903 246.766 126.872L246.694 126.378ZM256.015 132.39L255.535 132.528L255.535 132.528L256.015 132.39ZM257.388 137.148L256.907 137.286L256.907 137.286L257.388 137.148ZM260.104 140.673L260.364 140.247L260.36 140.244L260.104 140.673ZM260.712 141.045L260.452 141.471C260.572 141.545 260.718 141.564 260.854 141.524L260.712 141.045ZM263.102 142.529L262.609 142.615L262.61 142.616L263.102 142.529ZM261.684 144.756L261.555 144.273L261.546 144.275L261.684 144.756ZM254.457 146.842L254.318 146.361C254.177 146.402 254.061 146.503 254 146.637C253.94 146.771 253.942 146.925 254.006 147.057L254.457 146.842ZM254.627 147.28L255.108 147.14L255.105 147.133L254.627 147.28ZM253.911 150.191L254.271 150.537L253.911 150.191ZM248.869 148.95L248.388 149.088L248.388 149.089L248.869 148.95ZM248.78 148.489L249.277 148.438C249.262 148.291 249.182 148.158 249.059 148.075C248.937 147.992 248.783 147.968 248.641 148.009L248.78 148.489ZM246.316 124.492L245.835 124.628L245.835 124.631L246.316 124.492ZM245.403 126.146L245.264 125.666L245.403 126.146ZM245.679 123.69L245.437 124.128V124.128L245.679 123.69ZM244.661 123.579L244.8 124.06L244.803 124.059L244.661 123.579ZM243.749 125.234L243.269 125.373V125.373L243.749 125.234ZM238.724 149.672C239.214 150.824 240.494 151.42 241.691 151.053L241.398 150.097C240.691 150.314 239.934 149.962 239.645 149.281L238.724 149.672ZM238.785 147.736C238.494 148.34 238.471 149.04 238.72 149.663L239.649 149.291C239.503 148.928 239.517 148.521 239.686 148.169L238.785 147.736ZM240.25 146.482C239.607 146.676 239.076 147.131 238.785 147.736L239.686 148.169C239.855 147.817 240.165 147.552 240.539 147.439L240.25 146.482ZM240.656 142.084C241.115 143.644 240.866 145.326 239.976 146.687L240.812 147.234C241.863 145.628 242.157 143.643 241.616 141.802L240.656 142.084ZM239.268 137.271L240.656 142.081L241.617 141.804L240.229 136.994L239.268 137.271ZM244.268 126.565C240.144 128.367 238.002 132.954 239.269 137.274L240.228 136.992C239.103 133.156 241.005 129.081 244.668 127.481L244.268 126.565ZM242.238 124.848C242.259 126.109 243.123 127.199 244.346 127.508L244.591 126.539C243.806 126.34 243.251 125.64 243.237 124.831L242.238 124.848ZM244.252 122.117C243.041 122.468 242.216 123.587 242.238 124.848L243.237 124.831C243.223 124.021 243.753 123.303 244.531 123.077L244.252 122.117ZM247.415 123.346C246.759 122.269 245.463 121.765 244.252 122.117L244.531 123.077C245.308 122.852 246.14 123.175 246.561 123.866L247.415 123.346ZM247.057 126.721C247.925 125.806 248.071 124.423 247.415 123.346L246.561 123.866C246.983 124.558 246.888 125.446 246.331 126.034L247.057 126.721ZM256.495 132.251C255.257 127.959 251.042 125.24 246.622 125.883L246.766 126.872C250.691 126.302 254.435 128.716 255.535 132.528L256.495 132.251ZM257.868 137.009L256.495 132.251L255.535 132.528L256.907 137.286L257.868 137.009ZM260.36 140.244C259.15 139.52 258.26 138.364 257.868 137.009L256.907 137.286C257.369 138.885 258.42 140.249 259.847 141.103L260.36 140.244ZM260.973 140.618L260.364 140.247L259.843 141.1L260.452 141.471L260.973 140.618ZM262.503 140.827C261.926 140.468 261.223 140.373 260.571 140.565L260.854 141.524C261.232 141.413 261.64 141.468 261.976 141.676L262.503 140.827ZM263.594 142.443C263.478 141.774 263.081 141.185 262.503 140.827L261.976 141.676C262.311 141.884 262.541 142.226 262.609 142.615L263.594 142.443ZM261.814 145.239C263.043 144.91 263.816 143.695 263.594 142.442L262.61 142.616C262.741 143.359 262.283 144.078 261.555 144.273L261.814 145.239ZM254.595 147.322L261.823 145.236L261.546 144.275L254.318 146.361L254.595 147.322ZM255.105 147.133C255.052 146.959 254.986 146.79 254.908 146.626L254.006 147.057C254.063 147.176 254.11 147.3 254.149 147.426L255.105 147.133ZM254.271 150.537C255.137 149.636 255.455 148.341 255.107 147.14L254.147 147.419C254.396 148.276 254.168 149.201 253.55 149.845L254.271 150.537ZM250.912 151.512C252.125 151.811 253.406 151.439 254.271 150.537L253.55 149.845C252.932 150.489 252.017 150.754 251.151 150.541L250.912 151.512ZM248.388 149.089C248.736 150.289 249.698 151.213 250.912 151.512L251.151 150.541C250.284 150.327 249.597 149.668 249.349 148.81L248.388 149.089ZM248.282 148.541C248.301 148.726 248.337 148.909 248.388 149.088L249.349 148.811C249.314 148.689 249.29 148.565 249.277 148.438L248.282 148.541ZM241.683 151.056L248.918 148.97L248.641 148.009L241.406 150.095L241.683 151.056ZM245.835 124.631C245.963 125.075 245.708 125.538 245.264 125.666L245.542 126.627C246.516 126.345 247.077 125.328 246.796 124.354L245.835 124.631ZM245.437 124.128C245.631 124.235 245.774 124.415 245.835 124.628L246.797 124.356C246.664 123.886 246.349 123.488 245.921 123.252L245.437 124.128ZM244.803 124.059C245.015 123.996 245.244 124.021 245.437 124.128L245.921 123.252C245.493 123.016 244.988 122.961 244.519 123.1L244.803 124.059ZM244.23 125.095C244.101 124.651 244.357 124.188 244.8 124.06L244.522 123.099C243.548 123.381 242.987 124.399 243.269 125.373L244.23 125.095ZM245.264 125.666C244.821 125.794 244.358 125.539 244.23 125.095L243.269 125.373C243.55 126.347 244.568 126.908 245.542 126.627L245.264 125.666Z" fill="#263238"/>
<path d="M253.143 146.96L249.952 147.888L253.143 146.96Z" fill="#0078FF"/>
<path d="M253.143 146.96L249.952 147.888" stroke="#263238" stroke-linecap="round" stroke-linejoin="round"/>
<path d="M257.863 141.854L243.236 146.084L257.863 141.854Z" fill="#0078FF"/>
<path d="M257.863 141.854L243.236 146.084" stroke="#263238" stroke-linecap="round" stroke-linejoin="round"/>
<path d="M273.142 171.418L243.459 179.152C241.745 179.604 239.921 179.356 238.39 178.462C236.859 177.568 235.746 176.102 235.296 174.387C234.844 172.671 235.094 170.846 235.989 169.315C236.884 167.783 238.351 166.67 240.068 166.222L269.751 158.488C273.309 157.57 276.94 159.699 277.877 163.253C278.82 166.815 276.702 170.468 273.142 171.418Z" fill="#263238"/>
<path d="M240.186 169.882C240.393 169.529 240.742 169.283 241.144 169.206C241.532 169.075 241.958 169.121 242.309 169.332C242.65 169.587 242.883 169.96 242.962 170.379L243.014 170.572L242.101 170.809L242.034 170.557C242.006 170.391 241.922 170.239 241.797 170.127C241.677 170.051 241.529 170.034 241.396 170.082C241.258 170.105 241.139 170.194 241.077 170.32C241.021 170.478 241.021 170.651 241.077 170.809C241.136 171.053 241.271 171.271 241.463 171.433C241.707 171.626 241.97 171.792 242.249 171.93C242.49 172.052 242.723 172.188 242.947 172.338C243.142 172.474 243.315 172.639 243.459 172.828C243.624 173.051 243.745 173.303 243.815 173.571C243.949 173.978 243.923 174.422 243.741 174.81C243.265 175.499 242.356 175.736 241.604 175.367C241.253 175.119 241.013 174.743 240.936 174.32L240.839 173.942L241.752 173.704L241.863 174.142C241.967 174.543 242.183 174.699 242.516 174.61C242.85 174.521 242.969 174.283 242.865 173.868C242.804 173.625 242.669 173.407 242.479 173.244C242.237 173.051 241.973 172.887 241.693 172.754C241.453 172.628 241.22 172.489 240.995 172.338C240.8 172.203 240.627 172.038 240.483 171.849C240.316 171.627 240.195 171.375 240.127 171.106C239.997 170.705 240.018 170.269 240.186 169.882Z" fill="white"/>
<path d="M245.292 173.259C245.396 173.652 245.618 173.808 245.952 173.726C246.286 173.645 246.397 173.392 246.294 172.984L245.062 168.249L245.975 168.011L247.192 172.68C247.325 173.087 247.299 173.531 247.117 173.919C246.91 174.276 246.558 174.525 246.153 174.602C245.762 174.726 245.338 174.683 244.98 174.483C244.635 174.227 244.397 173.851 244.312 173.429L243.095 168.761L244.06 168.508L245.292 173.259Z" fill="white"/>
<path fill-rule="evenodd" clip-rule="evenodd" d="M249.262 167.536C249.594 167.764 249.819 168.118 249.885 168.516L249.937 168.731C250.019 168.998 250.037 169.28 249.989 169.555C249.942 169.782 249.819 169.986 249.641 170.134C250.167 170.193 250.524 170.572 250.702 171.255L250.828 171.759C250.963 172.148 250.931 172.575 250.739 172.94C250.513 173.286 250.152 173.523 249.744 173.593L248.26 173.994L246.657 167.855L248.142 167.469C248.51 167.351 248.91 167.374 249.262 167.536ZM248.245 170.097L248.624 170C248.786 169.972 248.928 169.878 249.017 169.74C249.085 169.566 249.085 169.373 249.017 169.199L248.928 168.857C248.899 168.685 248.812 168.529 248.683 168.412C248.564 168.329 248.412 168.309 248.275 168.36L247.808 168.479L248.245 170.097ZM249.537 172.717L248.988 172.865L248.49 170.98L248.921 170.861C249.092 170.8 249.282 170.817 249.44 170.906C249.598 171.047 249.702 171.239 249.737 171.448L249.878 171.982C249.937 172.145 249.937 172.324 249.878 172.487C249.804 172.611 249.679 172.695 249.537 172.717Z" fill="white"/>
<path d="M250.509 167.217C250.712 166.86 251.062 166.613 251.466 166.541C251.853 166.408 252.279 166.451 252.631 166.66C252.975 166.916 253.211 167.292 253.291 167.714L253.343 167.907L252.431 168.144L252.364 167.885C252.337 167.718 252.25 167.567 252.119 167.462C252.003 167.383 251.858 167.364 251.726 167.41C251.586 167.433 251.465 167.521 251.399 167.647C251.344 167.806 251.344 167.978 251.399 168.137C251.456 168.38 251.588 168.598 251.778 168.76C252.026 168.952 252.291 169.118 252.572 169.258C252.854 169.406 253.084 169.547 253.269 169.666C253.461 169.805 253.633 169.97 253.781 170.156C253.946 170.378 254.064 170.63 254.13 170.898C254.27 171.304 254.246 171.749 254.063 172.138C253.854 172.493 253.503 172.742 253.099 172.821C252.706 172.947 252.278 172.904 251.919 172.702C251.574 172.446 251.338 172.07 251.258 171.648L251.154 171.277L252.067 171.032L252.186 171.477C252.29 171.871 252.505 172.026 252.839 171.937C253.173 171.848 253.284 171.611 253.18 171.195C253.122 170.955 252.989 170.74 252.802 170.579C252.557 170.384 252.29 170.217 252.008 170.082C251.77 169.955 251.54 169.817 251.318 169.666C251.119 169.535 250.945 169.369 250.805 169.176C250.633 168.958 250.511 168.705 250.449 168.434C250.319 168.035 250.34 167.601 250.509 167.217Z" fill="white"/>
<path d="M257.484 170.008C257.618 170.415 257.592 170.859 257.41 171.247C257.2 171.6 256.849 171.846 256.445 171.923C256.056 172.055 255.628 172.012 255.273 171.804C254.922 171.556 254.682 171.18 254.605 170.758L253.774 167.566C253.638 167.159 253.661 166.716 253.841 166.326C254.05 165.971 254.401 165.722 254.805 165.643C255.198 165.517 255.626 165.56 255.985 165.762C256.33 166.018 256.566 166.394 256.646 166.816L256.802 167.41L255.889 167.647L255.718 166.987C255.614 166.586 255.399 166.43 255.065 166.519C254.731 166.608 254.62 166.846 254.724 167.261L255.585 170.572C255.688 170.973 255.904 171.129 256.238 171.04C256.572 170.95 256.69 170.713 256.586 170.297L256.356 169.421L257.269 169.184L257.484 170.008Z" fill="white"/>
<path fill-rule="evenodd" clip-rule="evenodd" d="M260.185 170.067C260.222 170.226 260.269 170.382 260.326 170.535C260.371 170.631 260.428 170.721 260.497 170.802L261.477 170.542C261.406 170.452 261.348 170.352 261.306 170.245C261.269 170.141 261.224 170 261.18 169.829L260.935 168.879C260.869 168.589 260.742 168.316 260.564 168.078C260.414 167.888 260.195 167.766 259.955 167.736C260.335 167.375 260.456 166.819 260.26 166.333L260.134 165.844C260.093 165.434 259.858 165.069 259.502 164.863C259.146 164.657 258.713 164.635 258.338 164.804L256.854 165.19L258.449 171.329L259.414 171.076L258.768 168.575L259.095 168.486C259.273 168.426 259.468 168.448 259.629 168.545C259.79 168.692 259.897 168.888 259.933 169.102L260.185 170.067ZM258.909 167.603L258.538 167.699L258.033 165.814L258.493 165.695C258.632 165.645 258.787 165.664 258.909 165.747C259.038 165.863 259.122 166.021 259.146 166.192L259.31 166.801C259.376 166.973 259.376 167.163 259.31 167.335C259.217 167.475 259.073 167.571 258.909 167.603Z" fill="white"/>
<path d="M261.343 164.018L262.939 170.156L261.974 170.408L260.378 164.248L261.343 164.018Z" fill="white"/>
<path fill-rule="evenodd" clip-rule="evenodd" d="M264.675 163.506C265.003 163.734 265.225 164.084 265.291 164.478L265.35 164.701C265.428 164.965 265.446 165.244 265.402 165.517C265.352 165.743 265.229 165.946 265.054 166.096C265.581 166.163 265.929 166.534 266.115 167.224L266.241 167.729C266.374 168.116 266.342 168.54 266.152 168.902C265.928 169.251 265.567 169.491 265.158 169.562L263.673 169.956L262.011 163.832L263.495 163.454C263.88 163.315 264.304 163.333 264.675 163.506ZM263.659 166.066L264.037 165.97C264.197 165.937 264.338 165.844 264.43 165.71C264.499 165.536 264.499 165.342 264.43 165.168L264.341 164.827C264.31 164.654 264.224 164.495 264.096 164.374C263.973 164.294 263.82 164.275 263.681 164.322L263.221 164.448L263.659 166.066ZM264.95 168.686L264.401 168.827L263.911 166.942L264.341 166.831C264.512 166.769 264.701 166.782 264.861 166.868C265.018 167.013 265.123 167.206 265.158 167.417L265.291 167.952C265.352 168.112 265.352 168.289 265.291 168.449C265.217 168.574 265.092 168.66 264.95 168.686Z" fill="white"/>
<path d="M268.564 164.894L268.794 165.777L267.465 166.118L267.933 167.915L269.602 167.484L269.833 168.36L267.198 169.043L265.603 162.904L268.23 162.221L268.46 163.097L266.797 163.535L267.243 165.242L268.564 164.894Z" fill="white"/>
<path fill-rule="evenodd" clip-rule="evenodd" d="M271.532 161.776C271.171 161.577 270.744 161.536 270.352 161.665L268.823 162.065L270.426 168.204L271.955 167.803C272.359 167.734 272.714 167.493 272.927 167.143C273.11 166.759 273.134 166.319 272.994 165.918L272.185 162.808C272.109 162.392 271.875 162.022 271.532 161.776ZM271.703 166.935L271.161 167.076L270.011 162.689L270.56 162.548C270.692 162.508 270.834 162.524 270.953 162.592C271.083 162.701 271.172 162.85 271.206 163.016L272.037 166.207C272.092 166.366 272.092 166.539 272.037 166.697C271.965 166.821 271.843 166.907 271.703 166.935Z" fill="white"/>
<path d="M201.004 255.464C201.004 255.464 191.995 234.495 196.552 209.065" stroke="#263238" stroke-linecap="round" stroke-linejoin="round"/>
<path d="M179.024 278.118C179.024 278.118 160.813 283.685 158.987 287.878C157.162 292.072 167.15 288.539 167.15 288.539" stroke="#263238" stroke-linecap="round" stroke-linejoin="round"/>
<path d="M190.222 192.135C190.222 192.135 173.451 208.761 162.23 213.192" stroke="#263238" stroke-linecap="round" stroke-linejoin="round"/>
<path d="M135.27 187.666C135.27 187.666 132.213 210.112 143.619 214.35" stroke="#263238" stroke-linecap="round" stroke-linejoin="round"/>
<path d="M102.99 232.988C102.99 232.988 102.901 203.565 108.741 194.465" stroke="#263238" stroke-linecap="round" stroke-linejoin="round"/>
<path d="M100.808 203.009C100.808 203.009 99.168 221.283 102.856 227.243" stroke="#263238" stroke-linecap="round" stroke-linejoin="round"/>
<path d="M88.801 237.331C88.801 237.331 76.0446 232.936 73.4028 238.385C70.7609 243.833 81.0091 239.001 81.0091 239.001" stroke="#263238" stroke-linecap="round" stroke-linejoin="round"/>
<path d="M96.4742 256.407C96.4742 256.407 83.9479 263.466 83.3022 267.504" stroke="#263238" stroke-linecap="round" stroke-linejoin="round"/>
<path d="M116.933 236.885C116.933 236.885 140.91 273.13 154.142 269.804" stroke="#263238" stroke-linecap="round" stroke-linejoin="round"/>
<path d="M133.311 287.722C133.311 287.722 114.514 301.506 111.791 300.341" stroke="#263238" stroke-linecap="round" stroke-linejoin="round"/>
<path opacity="0.2" d="M264.979 228.906C266.248 227.867 267.087 227.176 267.361 226.961C267.079 227.206 266.263 227.919 264.979 228.906Z" fill="black"/>
</svg>
