<svg width="16" height="16" viewBox="0 0 16 16" fill="none" xmlns="http://www.w3.org/2000/svg">
<path fill-rule="evenodd" clip-rule="evenodd" d="M13.8368 0H2.15504C0.964934 0 0.00012207 0.964773 0.00012207 2.15491V13.8367C0.00012207 15.0269 0.964895 15.9916 2.15504 15.9916H7.91641L7.92622 10.2771H6.44159C6.24865 10.2771 6.09205 10.1211 6.09131 9.92814L6.08419 8.0861C6.08345 7.89211 6.24051 7.73445 6.43451 7.73445H7.91644V5.95458C7.91644 3.88906 9.17794 2.76436 11.0205 2.76436H12.5325C12.726 2.76436 12.8828 2.92119 12.8828 3.11468V4.66789C12.8828 4.8613 12.7261 5.01809 12.5327 5.01821L11.6048 5.01864C10.6028 5.01864 10.4087 5.49481 10.4087 6.1936V7.73449H12.6106C12.8204 7.73449 12.9832 7.91769 12.9584 8.12604L12.7401 9.96808C12.7192 10.1444 12.5697 10.2772 12.3923 10.2772H10.4185L10.4087 15.9917H13.8368C15.0269 15.9917 15.9917 15.0269 15.9917 13.8368V2.15491C15.9917 0.964773 15.0269 0 13.8368 0Z" fill="#475993"/>
</svg>
