<svg width="375" height="475" viewBox="0 0 375 475" fill="none" xmlns="http://www.w3.org/2000/svg">
<rect x="-1" width="377" height="453" fill="url(#paint0_linear_0_1)"/>
<path fill-rule="evenodd" clip-rule="evenodd" d="M316.649 179.342C317.013 178.732 317.099 177.994 316.884 177.316C316.67 176.638 316.176 176.086 315.528 175.799C309.472 173.059 292.021 167.141 267.08 174.703C235.72 184.203 171.193 201.824 144.244 211.913C127.151 218.448 110.551 226.22 94.575 235.167C94.113 235.422 93.8937 235.97 94.0501 236.476V236.659C94.2988 237.479 94.9582 238.107 95.7862 238.313C101.519 239.693 125.673 243.835 170.386 230.295C222.124 214.623 291.365 195.714 302.144 191.004C310.391 187.37 314.64 182.63 316.649 179.342Z" fill="#E9F1F3"/>
<g style="mix-blend-mode:multiply">
<path fill-rule="evenodd" clip-rule="evenodd" d="M133 223L105.099 231.832L100 238.962C105.217 239.747 110.491 240.088 115.766 239.981L133 223Z" fill="#DBE9EB"/>
</g>
<path fill-rule="evenodd" clip-rule="evenodd" d="M145.24 214.372C172.178 204.29 236.636 186.662 267.982 177.158C285.379 171.878 299.802 171.939 309 173.391C300.367 170.934 285.914 169.045 267.245 174.701C235.909 184.205 171.432 201.832 144.503 211.925C128.183 218.173 112.31 225.549 97 234C107.378 229.37 127.035 221.196 145.24 214.372Z" fill="white"/>
<g style="mix-blend-mode:multiply">
<path fill-rule="evenodd" clip-rule="evenodd" d="M300.608 185.653C289.858 190.36 220.735 209.27 169.091 224.923C133.103 235.839 106.828 237.888 95 237.553C95.3264 237.928 95.7588 238.194 96.2392 238.314C101.962 239.694 126.071 243.833 170.703 230.3C222.346 214.636 291.46 195.737 302.22 191.03C310.401 187.449 314.642 182.711 316.647 179.384C317.083 178.658 317.117 177.757 316.738 177C313.252 179.8 306.925 182.894 300.608 185.653Z" fill="#DBE9EB"/>
</g>
<g style="mix-blend-mode:multiply">
<path fill-rule="evenodd" clip-rule="evenodd" d="M243.836 208.042L248 201L235.72 204.551L209.815 212.01L199 221C215.697 216.068 227.664 212.71 243.836 208.042Z" fill="#DBE9EB"/>
</g>
<path fill-rule="evenodd" clip-rule="evenodd" d="M129 217.963C129 217.963 103.078 208.365 89.8326 199L78 202.561L98.1479 233C103.81 229.916 115.216 223.939 129 217.963Z" fill="#366CA7"/>
<path fill-rule="evenodd" clip-rule="evenodd" d="M300.543 175.976L309 173.121C305.747 172.118 302.428 171.408 299.074 171L295.233 172.299C295.105 172.346 295.014 172.473 295.002 172.622C294.989 172.771 295.056 172.915 295.173 172.988L300.037 175.909C300.192 176 300.373 176.024 300.543 175.976Z" fill="#4487BA"/>
<path fill-rule="evenodd" clip-rule="evenodd" d="M292.323 173.061L288.652 174.169C288.354 174.276 288.126 174.521 288.038 174.827C287.951 175.133 288.015 175.462 288.21 175.713L289.3 176.95C290.114 177.858 291.373 178.216 292.539 177.87L297.722 176.296C297.875 176.247 297.983 176.11 297.998 175.948C298.013 175.787 297.931 175.632 297.79 175.554L293.373 173.16C293.049 172.989 292.672 172.954 292.323 173.061Z" fill="#4487BA"/>
<path fill-rule="evenodd" clip-rule="evenodd" d="M175 217.833L165.388 215L160 216.589L164.286 221L175 217.833Z" fill="#D7E7EB"/>
<g style="mix-blend-mode:multiply">
<path fill-rule="evenodd" clip-rule="evenodd" d="M175 217.833L165.388 215L160 216.589L164.286 221L175 217.833Z" fill="#DBE9EB"/>
</g>
<path fill-rule="evenodd" clip-rule="evenodd" d="M130.337 224.569L133 223C133 223 128.099 223.278 118.316 226.168C108.534 229.058 89 236 89 236L130.337 224.569Z" fill="white"/>
<path fill-rule="evenodd" clip-rule="evenodd" d="M133 223C133 223 129.82 226.744 118.914 230.032C109.425 232.893 94.0025 236.18 90.1544 236.982C89.6508 237.078 89.155 236.782 89 236.292L133 223Z" fill="#D7E7EB"/>
<g style="mix-blend-mode:multiply">
<path fill-rule="evenodd" clip-rule="evenodd" d="M133 223C133 223 129.82 226.744 118.914 230.032C109.425 232.893 94.0025 236.18 90.1544 236.982C89.6508 237.078 89.155 236.782 89 236.292L133 223Z" fill="#DBE9EB"/>
</g>
<path fill-rule="evenodd" clip-rule="evenodd" d="M262.129 185.18C261.904 184.434 262.327 183.648 263.073 183.423L263.108 183.413C263.854 183.189 264.64 183.612 264.864 184.357L265.335 185.922C265.559 186.668 265.136 187.455 264.39 187.679L264.355 187.689C263.61 187.913 262.823 187.49 262.599 186.745L262.129 185.18Z" fill="#4487BA"/>
<path fill-rule="evenodd" clip-rule="evenodd" d="M257.773 186.514C257.547 185.768 257.968 184.981 258.714 184.756L258.749 184.745C259.494 184.52 260.281 184.941 260.507 185.686L260.98 187.25C261.206 187.996 260.784 188.783 260.039 189.008L260.004 189.019C259.258 189.244 258.471 188.823 258.246 188.078L257.773 186.514Z" fill="#4487BA"/>
<path fill-rule="evenodd" clip-rule="evenodd" d="M255.077 189.946C254.4 190.149 253.687 189.763 253.481 189.083L253.053 187.661C252.852 186.976 253.24 186.258 253.919 186.054C254.598 185.851 255.313 186.236 255.524 186.917L255.943 188.34C256.044 188.668 256.01 189.024 255.846 189.327C255.683 189.629 255.406 189.853 255.077 189.946Z" fill="#4487BA"/>
<path fill-rule="evenodd" clip-rule="evenodd" d="M251.077 191.951C250.744 192.045 250.388 192.002 250.088 191.831C249.788 191.661 249.569 191.377 249.482 191.044L249.054 189.646C248.853 188.972 249.235 188.263 249.91 188.058C250.237 187.956 250.59 187.989 250.892 188.15C251.193 188.31 251.417 188.584 251.514 188.911L251.933 190.308C252.044 190.639 252.016 191.001 251.854 191.31C251.693 191.62 251.412 191.851 251.077 191.951Z" fill="#4487BA"/>
<path fill-rule="evenodd" clip-rule="evenodd" d="M247.086 192.944C246.759 193.044 246.405 193.009 246.103 192.847C245.801 192.686 245.576 192.41 245.476 192.082L245.056 190.659C244.956 190.332 244.991 189.979 245.152 189.677C245.314 189.376 245.589 189.151 245.916 189.054C246.595 188.852 247.309 189.237 247.516 189.916L247.946 191.338C248.148 192.02 247.764 192.736 247.086 192.944Z" fill="#4487BA"/>
<path fill-rule="evenodd" clip-rule="evenodd" d="M242.077 193.947C241.397 194.148 240.683 193.759 240.481 193.076L240.053 191.663C239.852 190.98 240.24 190.262 240.919 190.058C241.245 189.956 241.599 189.989 241.901 190.151C242.202 190.313 242.427 190.591 242.523 190.92L242.943 192.333C243.044 192.662 243.01 193.019 242.847 193.323C242.684 193.627 242.406 193.851 242.077 193.947Z" fill="#4487BA"/>
<path fill-rule="evenodd" clip-rule="evenodd" d="M235.97 193.08C235.745 192.334 236.167 191.547 236.913 191.323L236.948 191.312C237.693 191.087 238.48 191.509 238.705 192.255L239.177 193.819C239.402 194.565 238.98 195.352 238.234 195.577L238.199 195.587C237.453 195.812 236.667 195.39 236.442 194.645L235.97 193.08Z" fill="#4487BA"/>
<path fill-rule="evenodd" clip-rule="evenodd" d="M233.077 196.951C232.744 197.045 232.386 197.002 232.085 196.832C231.784 196.661 231.564 196.377 231.474 196.043L231.055 194.644C230.956 194.32 230.991 193.971 231.152 193.672C231.313 193.374 231.586 193.152 231.912 193.055C232.236 192.957 232.587 192.991 232.887 193.151C233.186 193.312 233.409 193.584 233.505 193.909L233.933 195.307C234.044 195.638 234.016 196 233.854 196.31C233.693 196.62 233.413 196.851 233.077 196.951Z" fill="#4487BA"/>
<path fill-rule="evenodd" clip-rule="evenodd" d="M229.085 197.944C228.759 198.044 228.406 198.009 228.105 197.847C227.805 197.685 227.581 197.409 227.483 197.081L227.053 195.666C226.852 194.979 227.24 194.258 227.923 194.05C228.258 193.954 228.617 193.998 228.92 194.17C229.223 194.343 229.444 194.63 229.534 194.968L229.955 196.383C230.137 197.054 229.751 197.748 229.085 197.944Z" fill="#4487BA"/>
<path fill-rule="evenodd" clip-rule="evenodd" d="M216.077 201.946C215.4 202.148 214.687 201.763 214.481 201.084L214.053 199.662C213.852 198.978 214.24 198.26 214.919 198.056C215.245 197.956 215.598 197.991 215.899 198.153C216.2 198.314 216.424 198.59 216.523 198.918L216.943 200.331C217.044 200.661 217.01 201.018 216.847 201.322C216.684 201.626 216.406 201.851 216.077 201.946Z" fill="#4487BA"/>
<path fill-rule="evenodd" clip-rule="evenodd" d="M211.094 203.944C210.766 204.044 210.412 204.009 210.11 203.847C209.809 203.685 209.584 203.409 209.486 203.081L209.054 201.667C208.851 200.983 209.236 200.263 209.918 200.052C210.253 199.954 210.614 199.996 210.917 200.169C211.22 200.342 211.44 200.631 211.526 200.97L211.958 202.383C212.132 203.051 211.752 203.737 211.094 203.944Z" fill="#4487BA"/>
<path fill-rule="evenodd" clip-rule="evenodd" d="M208.086 204.946C207.405 205.149 206.687 204.764 206.476 204.083L206.056 202.661C205.956 202.334 205.991 201.981 206.152 201.679C206.314 201.378 206.589 201.153 206.916 201.056C207.242 200.956 207.594 200.991 207.895 201.153C208.195 201.315 208.419 201.59 208.516 201.918L208.946 203.34C209.148 204.022 208.764 204.738 208.086 204.946Z" fill="#4487BA"/>
<path fill-rule="evenodd" clip-rule="evenodd" d="M204.077 205.942C203.752 206.044 203.399 206.01 203.099 205.848C202.799 205.686 202.576 205.409 202.482 205.08L202.053 203.667C201.852 202.981 202.239 202.261 202.919 202.053C203.601 201.851 204.317 202.24 204.524 202.925L204.943 204.337C205.044 204.665 205.01 205.021 204.846 205.323C204.683 205.625 204.406 205.849 204.077 205.942Z" fill="#4487BA"/>
<path fill-rule="evenodd" clip-rule="evenodd" d="M196.732 204.893C196.507 204.147 196.929 203.36 197.675 203.136L197.71 203.125C198.455 202.9 199.242 203.322 199.467 204.068L199.939 205.632C200.164 206.378 199.741 207.165 198.996 207.39L198.961 207.4C198.215 207.625 197.429 207.203 197.204 206.458L196.732 204.893Z" fill="#4487BA"/>
<path fill-rule="evenodd" clip-rule="evenodd" d="M195.096 208.942C194.767 209.044 194.411 209.011 194.107 208.848C193.803 208.686 193.576 208.409 193.479 208.079L193.056 206.665C192.956 206.336 192.991 205.981 193.153 205.678C193.315 205.375 193.591 205.149 193.92 205.049C194.255 204.954 194.615 204.998 194.917 205.171C195.22 205.343 195.44 205.63 195.528 205.967L195.96 207.381C196.129 208.047 195.751 208.73 195.096 208.942Z" fill="#4487BA"/>
<path fill-rule="evenodd" clip-rule="evenodd" d="M188.038 207.484C187.813 206.738 188.235 205.951 188.981 205.726L189.016 205.716C189.761 205.491 190.548 205.913 190.773 206.658L191.245 208.223C191.47 208.969 191.048 209.755 190.302 209.98L190.267 209.991C189.522 210.216 188.735 209.794 188.51 209.048L188.038 207.484Z" fill="#4487BA"/>
<path fill-rule="evenodd" clip-rule="evenodd" d="M183.66 208.83C183.435 208.085 183.857 207.298 184.603 207.073L184.638 207.063C185.384 206.838 186.17 207.26 186.395 208.005L186.867 209.57C187.092 210.316 186.67 211.102 185.924 211.327L185.889 211.338C185.143 211.562 184.357 211.14 184.132 210.395L183.66 208.83Z" fill="#4487BA"/>
<path fill-rule="evenodd" clip-rule="evenodd" d="M182.102 212.945C181.418 213.15 180.699 212.762 180.487 212.074L180.056 210.676C179.956 210.345 179.991 209.988 180.153 209.684C180.315 209.379 180.59 209.153 180.918 209.054C181.599 208.85 182.316 209.239 182.524 209.925L182.955 211.361C183.135 212.035 182.759 212.732 182.102 212.945Z" fill="#4487BA"/>
<path fill-rule="evenodd" clip-rule="evenodd" d="M154.971 217.444C154.747 216.698 155.172 215.912 155.918 215.689L155.953 215.679C156.699 215.456 157.484 215.88 157.708 216.626L158.176 218.192C158.399 218.938 157.975 219.724 157.228 219.947L157.193 219.957C156.447 220.18 155.662 219.756 155.439 219.01L154.971 217.444Z" fill="#4487BA"/>
<path fill-rule="evenodd" clip-rule="evenodd" d="M153.086 221.942C152.758 222.044 152.403 222.011 152.1 221.849C151.797 221.687 151.572 221.41 151.475 221.081L151.054 219.67C150.852 218.988 151.235 218.269 151.914 218.058C152.241 217.956 152.595 217.99 152.896 218.152C153.197 218.314 153.421 218.59 153.516 218.919L153.946 220.33C154.148 221.012 153.765 221.73 153.086 221.942Z" fill="#4487BA"/>
<path fill-rule="evenodd" clip-rule="evenodd" d="M148.087 222.946C147.406 223.149 146.689 222.764 146.478 222.083L146.058 220.66C145.956 220.333 145.99 219.978 146.151 219.676C146.313 219.373 146.589 219.149 146.917 219.054C147.596 218.851 148.31 219.237 148.517 219.917L148.946 221.339C149.148 222.021 148.764 222.738 148.087 222.946Z" fill="#4487BA"/>
<path fill-rule="evenodd" clip-rule="evenodd" d="M141.904 221.38C141.679 220.635 142.101 219.848 142.847 219.623L142.882 219.612C143.627 219.388 144.414 219.809 144.639 220.555L145.111 222.119C145.336 222.865 144.914 223.652 144.168 223.877L144.133 223.887C143.388 224.112 142.601 223.69 142.376 222.945L141.904 221.38Z" fill="#4487BA"/>
<path fill-rule="evenodd" clip-rule="evenodd" d="M267.03 183.228C266.799 182.461 267.233 181.652 268 181.421L270.271 180.738C271.037 180.507 271.846 180.941 272.077 181.708L273.958 187.952C274.189 188.719 273.755 189.528 272.988 189.759L270.718 190.442C269.951 190.673 269.142 190.238 268.911 189.472L267.03 183.228Z" fill="#4487BA"/>
<path fill-rule="evenodd" clip-rule="evenodd" d="M219.644 197.497C219.413 196.73 219.848 195.921 220.615 195.69L222.885 195.007C223.652 194.776 224.46 195.21 224.691 195.977L226.573 202.221C226.804 202.988 226.369 203.797 225.602 204.028L223.332 204.711C222.565 204.942 221.757 204.508 221.526 203.741L219.644 197.497Z" fill="#4487BA"/>
<path fill-rule="evenodd" clip-rule="evenodd" d="M245.247 202.781L248 201C248 201 240.249 201.23 228.16 204.813C216.07 208.395 197.744 214.189 186 216C186 216 212.891 213.128 215.227 212.508C217.564 211.887 245.247 202.781 245.247 202.781Z" fill="white"/>
<path fill-rule="evenodd" clip-rule="evenodd" d="M248.967 201C248.967 201 201.003 214.828 175.524 217.859L165 221C165 221 191.937 220.829 218.125 212.972C218.125 213.002 250.161 204.934 248.967 201Z" fill="#D7E7EB"/>
<g style="mix-blend-mode:multiply">
<path fill-rule="evenodd" clip-rule="evenodd" d="M248.967 201C248.967 201 201.003 214.828 175.524 217.859L165 221C165 221 191.937 220.829 218.125 212.972C218.125 213.002 250.161 204.934 248.967 201Z" fill="#DBE9EB"/>
</g>
<path fill-rule="evenodd" clip-rule="evenodd" d="M117.535 214L87 216.676L89.9302 221L120 214.987L117.535 214Z" fill="#DBE9EB"/>
<path fill-rule="evenodd" clip-rule="evenodd" d="M84 212L85.5598 214L106 212.826L84 212Z" fill="#DBE9EB"/>
<path fill-rule="evenodd" clip-rule="evenodd" d="M88.554 262.05L80.4034 264.401C79.4414 264.651 78.8439 265.577 79.0358 266.522C79.2276 267.466 80.1433 268.105 81.1316 267.986C81.2537 267.977 81.3743 267.954 81.4908 267.918L89.6514 265.586C90.6542 265.294 91.2214 264.271 90.9184 263.303C90.6154 262.334 89.5568 261.786 88.554 262.079V262.05Z" fill="white"/>
<path fill-rule="evenodd" clip-rule="evenodd" d="M181.921 235.379C181.775 234.887 181.443 234.473 180.999 234.23C180.554 233.987 180.032 233.934 179.549 234.083L97.3152 259.199C96.3989 259.506 95.8503 260.461 96.036 261.426C96.2217 262.391 97.0836 263.064 98.0456 262.995C98.1712 262.985 98.2954 262.961 98.4158 262.924L180.62 237.798C181.109 237.656 181.521 237.32 181.766 236.866C182.01 236.411 182.066 235.876 181.921 235.379Z" fill="white"/>
<path fill-rule="evenodd" clip-rule="evenodd" d="M63.4724 254.089L46.4407 259.19C45.4532 259.454 44.8398 260.435 45.0367 261.435C45.2336 262.434 46.1736 263.112 47.1883 262.985C47.3132 262.967 47.4365 262.94 47.557 262.903L64.5887 257.802C65.2628 257.61 65.7811 257.072 65.9456 256.393C66.1101 255.714 65.8953 255 65.3834 254.523C64.8714 254.046 64.1414 253.88 63.4724 254.089Z" fill="white"/>
<path fill-rule="evenodd" clip-rule="evenodd" d="M102.92 244.421C102.61 243.369 101.528 242.771 100.499 243.082L74.3426 251.104C73.4072 251.419 72.8472 252.398 73.0368 253.387C73.2263 254.376 74.1061 255.066 75.0882 254.995C75.2157 254.98 75.342 254.955 75.4661 254.922L101.612 246.889C102.638 246.577 103.223 245.472 102.92 244.421Z" fill="white"/>
<path fill-rule="evenodd" clip-rule="evenodd" d="M74.4561 233.078L59.4608 237.331C58.4595 237.586 57.8376 238.531 58.0372 239.493C58.2369 240.455 59.19 241.107 60.2189 240.985C60.3452 240.972 60.4702 240.949 60.5927 240.917L75.588 236.663C76.2651 236.472 76.7829 235.954 76.9463 235.304C77.1098 234.653 76.894 233.97 76.3804 233.511C75.8667 233.052 75.1332 232.887 74.4561 233.078Z" fill="white"/>
<path fill-rule="evenodd" clip-rule="evenodd" d="M79.0663 233.573C79.3174 234.487 80.1308 235.081 81.008 234.991C81.1268 234.982 81.2442 234.957 81.3575 234.918L87.6876 232.911C88.6635 232.591 89.2155 231.477 88.9206 230.42C88.6257 229.364 87.5955 228.767 86.6196 229.086L80.309 231.124C79.3519 231.443 78.8017 232.527 79.0663 233.573Z" fill="white"/>
<path fill-rule="evenodd" clip-rule="evenodd" d="M44.1257 232.991C44.2508 232.982 44.3744 232.958 44.4937 232.92L81.7293 221.778C82.694 221.419 83.2137 220.373 82.9166 219.388C82.6195 218.403 81.6078 217.818 80.605 218.051L43.3796 229.203C42.4247 229.491 41.8442 230.456 42.0368 231.434C42.2294 232.412 43.1325 233.085 44.1257 232.991Z" fill="white"/>
<path fill-rule="evenodd" clip-rule="evenodd" d="M181.529 101.625C180.291 101.625 179.068 101.899 177.948 102.425C176.031 99.0397 172.429 96.9441 168.522 96.9421C167.877 96.9461 167.234 97.0063 166.6 97.1222C164.714 89.593 157.982 84.2596 150.182 84.1144C150.18 80.505 147.863 77.2994 144.424 76.1464C140.986 74.9935 137.191 76.1501 134.992 79.0213C129.777 74.4168 122.529 72.843 115.859 74.8671C109.189 76.8912 104.059 82.2214 102.317 88.9373C97.8312 87.2643 92.8171 87.7744 88.7649 90.3161C84.7127 92.8577 82.089 97.1382 81.6737 101.885C80.956 101.688 80.2151 101.587 79.4705 101.585C74.7963 101.585 71.0056 105.351 71 110H190C189.972 105.367 186.188 101.625 181.529 101.625Z" fill="white"/>
<path fill-rule="evenodd" clip-rule="evenodd" d="M362 135.244C362.011 132.758 360.842 130.419 358.86 128.959C356.877 127.498 354.322 127.095 351.996 127.876C350.63 122.51 345.864 118.756 340.401 118.742C339.557 118.745 338.715 118.837 337.89 119.016C337.306 110.403 330.858 103.38 322.43 102.179C314.002 100.978 305.895 105.926 302.995 114.043C298.216 110.879 292.114 110.623 287.094 113.375C282.074 116.128 278.942 121.448 278.935 127.237C278.936 128.46 279.077 129.679 279.355 130.87H273.923C272.352 130.87 270.845 131.503 269.735 132.63C268.624 133.757 268 135.285 268 136.878V137H361.79C361.928 136.425 361.998 135.836 362 135.244Z" fill="#00B0FF"/>
<path fill-rule="evenodd" clip-rule="evenodd" d="M42.742 190.524C42.742 187.972 40.6703 185.904 38.1148 185.904C37.9038 185.889 37.692 185.889 37.4811 185.904C37.1282 182.19 34.0045 179.353 30.2686 179.355C29.0357 179.351 27.8228 179.666 26.7479 180.269C25.7178 177.888 23.3703 176.345 20.7728 176.341C19.6355 176.338 18.5177 176.636 17.5337 177.205C15.2355 173.246 10.8734 170.946 6.30269 171.284C1.73202 171.622 -2.24333 174.538 -3.93254 178.792C-5.16821 177.959 -6.6259 177.514 -8.11716 177.516C-11.8365 177.521 -14.9931 180.241 -15.5408 183.915C-16.49 182.959 -17.7838 182.423 -19.132 182.428C-21.9097 182.428 -24.1615 184.677 -24.1615 187.45C-24.1615 187.591 -24.1615 187.732 -24.1615 187.872H-25.8817C-27.865 187.872 -29.4728 189.478 -29.4728 191.458V191.528H42.6213C42.7004 191.199 42.741 190.862 42.742 190.524Z" fill="#00B0FF"/>
<path opacity="0.41" fill-rule="evenodd" clip-rule="evenodd" d="M453.438 272.426C451.936 272.433 450.454 272.776 449.102 273.43C446.787 269.317 442.43 266.772 437.705 266.771C436.926 266.773 436.148 266.847 435.382 266.992C433.074 257.875 424.941 251.428 415.525 251.252C415.558 246.855 412.77 242.93 408.603 241.508C404.436 240.086 399.825 241.487 397.157 244.985C390.848 239.392 382.078 237.482 374.01 239.942C365.941 242.403 359.737 248.88 357.634 257.038C352.211 254.997 346.143 255.612 341.24 258.699C336.338 261.787 333.169 266.99 332.677 272.757C329.6 271.917 326.307 272.56 323.773 274.495C321.239 276.43 319.755 279.435 319.761 282.621H463.678C463.667 276.983 459.084 272.42 453.438 272.426Z" fill="#00B0FF"/>
<path fill-rule="evenodd" clip-rule="evenodd" d="M336.44 118.506C337.75 118.51 339.044 118.798 340.232 119.35C342.6 115.105 347.419 112.845 352.202 113.735C354.207 105.778 361.308 100.152 369.524 100.014C369.521 96.1922 371.96 92.794 375.585 91.5683C379.211 90.3426 383.216 91.5626 385.539 94.6004C391.042 89.7204 398.691 88.0522 405.731 90.197C412.77 92.3418 418.184 97.9904 420.021 105.107C424.753 103.327 430.047 103.863 434.324 106.556C438.601 109.249 441.368 113.787 441.799 118.817C444.491 118.086 447.37 118.653 449.581 120.35C451.793 122.048 453.082 124.68 453.066 127.466H327.507C327.496 125.093 328.433 122.814 330.109 121.133C331.786 119.451 334.064 118.506 336.44 118.506Z" fill="white"/>
<path fill-rule="evenodd" clip-rule="evenodd" d="M14.4154 55.0659C14.3992 53.4411 15.1713 51.909 16.4876 50.9536C17.8038 49.9983 19.5016 49.7379 21.0444 50.2546C21.918 46.7189 25.0925 44.2328 28.7396 44.228C29.3009 44.2319 29.8604 44.2925 30.4095 44.4088C30.8805 38.8449 35.1436 34.3464 40.6812 33.5699C46.2189 32.7933 51.558 35.9454 53.5456 41.1645C57.0869 38.8379 61.6934 38.9127 65.1572 41.353C68.6209 43.7933 70.2358 48.1018 69.2278 52.2133H72.829C73.8773 52.2079 74.8845 52.6207 75.6267 53.36C76.369 54.0993 76.7849 55.1039 76.7822 56.1507V56.231H14.5461C14.4538 55.8497 14.4099 55.4582 14.4154 55.0659Z" fill="#00B0FF"/>
<path fill-rule="evenodd" clip-rule="evenodd" d="M31.3953 44.188C30.5328 44.1932 29.6817 44.3851 28.9006 44.7505C27.3126 41.9755 24.142 40.5053 20.9941 41.0843C19.6616 35.8433 14.9814 32.1408 9.56691 32.0444C9.59175 29.5089 7.98766 27.2425 5.58579 26.4195C3.18392 25.5965 0.524155 26.4019 -1.01534 28.4184C-3.56001 26.1464 -6.8562 24.8942 -10.2698 24.9029C-16.6288 24.9034 -22.1817 29.2004 -23.7692 35.349C-24.9678 34.8952 -26.2394 34.6637 -27.5213 34.666C-33.0511 34.6716 -37.659 38.8976 -38.1337 44.399C-38.6355 44.2627 -39.1528 44.1918 -39.6727 44.188C-41.2449 44.188 -42.7519 44.815 -43.8588 45.9297C-44.9657 47.0444 -45.5808 48.5545 -45.5674 50.1242H37.3C37.3108 48.5536 36.6934 47.0435 35.5849 45.9291C34.4764 44.8147 32.9683 44.188 31.3953 44.188Z" fill="white"/>
<path fill-rule="evenodd" clip-rule="evenodd" d="M314.742 50.5258C314.742 46.9367 311.828 44.0271 308.234 44.0271C307.55 44.0249 306.871 44.1334 306.222 44.3486C305.08 39.8235 301.007 36.6502 296.334 36.6445C295.614 36.6497 294.896 36.7271 294.191 36.8756C293.619 29.7017 288.135 23.8867 280.998 22.8862C273.86 21.8857 266.985 25.968 264.456 32.7072C259.916 29.7687 254.042 29.8802 249.617 32.9889C245.192 36.0976 243.102 41.5795 244.338 46.8396H239.68C236.903 46.8396 234.651 49.0881 234.651 51.8617V51.9622H314.571C314.683 51.4915 314.74 51.0096 314.742 50.5258Z" fill="#00B0FF"/>
<path fill-rule="evenodd" clip-rule="evenodd" d="M412.899 380.754C396.548 380.748 381.649 390.127 374.604 404.86C365.56 402.167 355.804 403.319 347.638 408.043C339.472 412.768 333.619 420.646 331.46 429.821C325.906 425.454 318.681 423.807 311.779 425.335C304.877 426.863 299.027 431.404 295.841 437.705C291.19 427.975 280.892 422.238 270.157 423.398C259.421 424.557 250.59 432.36 248.13 442.858C242.204 439.876 234.978 441.897 231.465 447.519C227.952 453.141 229.31 460.51 234.597 464.515C239.884 468.52 247.357 467.84 251.832 462.947C256.98 470.541 265.83 474.772 274.983 474.014C284.135 473.256 292.166 467.628 295.992 459.291C300.087 467.12 308.229 472.001 317.075 471.929C325.921 471.857 333.981 466.844 337.948 458.949C344.354 467.062 354.093 471.843 364.438 471.954C374.783 472.065 384.623 467.495 391.202 459.522C406.58 468.67 426.055 467.191 439.872 455.826C453.688 444.461 458.87 425.658 452.823 408.834C446.775 392.011 430.8 380.791 412.899 380.794V380.754Z" fill="white"/>
<path fill-rule="evenodd" clip-rule="evenodd" d="M132.5 440.99C128.183 440.99 124.156 443.161 121.787 446.765C118.031 443.841 113.014 443.098 108.569 444.807C108.569 444.505 108.569 444.204 108.569 443.903C108.569 434.056 103.299 424.961 94.7498 420.053C86.2011 415.146 75.6776 415.174 67.1556 420.128C62.099 407.485 50.5656 398.58 37.0387 396.877C23.5118 395.173 10.1252 400.938 2.08279 411.931C-1.76154 410.036 -5.99245 409.053 -10.2799 409.059C-17.7063 409.056 -24.8295 412 -30.0817 417.243C-35.3339 422.485 -38.2847 429.597 -38.2847 437.012C-38.282 444.426 -35.33 451.535 -30.0781 456.775C-24.8262 462.016 -17.7046 464.958 -10.2799 464.956C-4.63905 464.962 0.871128 463.26 5.52303 460.074C12.5294 467.267 22.1367 471.346 32.1853 471.395C42.2339 471.444 51.8807 467.459 58.9573 460.335C63.7932 466.836 71.2538 470.878 79.3484 471.381C87.443 471.885 95.3481 468.799 100.954 462.947C102.993 467.647 107.507 470.802 112.628 471.106C117.749 471.409 122.606 468.81 125.187 464.383C129.727 467.532 135.777 467.425 140.202 464.116C144.628 460.807 146.434 455.041 144.686 449.804C142.938 444.567 138.028 441.036 132.5 441.04V440.99Z" fill="white"/>
<defs>
<linearGradient id="paint0_linear_0_1" x1="-1" y1="0" x2="-1" y2="453" gradientUnits="userSpaceOnUse">
<stop stop-color="#0078FF"/>
<stop offset="1" stop-color="#00B0FF"/>
</linearGradient>
</defs>
</svg>
