<svg width="337" height="140" viewBox="0 0 337 140" fill="none" xmlns="http://www.w3.org/2000/svg">
<path fill-rule="evenodd" clip-rule="evenodd" d="M79 62.2868C81.6171 56.0214 84.2349 49.7554 86.8532 43.4888L99.5227 80.1788L114.448 37H127.753L142.679 80.1788L157.737 37.0026H173L149.295 101H137.546L121.134 55.6112L105.331 101H93.7149L79 62.2868Z" fill="#0078FF"/>
<path fill-rule="evenodd" clip-rule="evenodd" d="M171.703 13.6249C172.231 14.7881 172.999 15.8358 173.962 16.7041C174.837 17.5039 175.858 18.1416 176.974 18.5851C178.684 19.2581 180.136 19.2581 180.966 19.2581C181.837 19.2546 183.699 19.223 185.745 18.2314C186.593 17.8187 187.374 17.2891 188.063 16.6593C191.005 14.0158 191.832 9.84887 190.109 6.35085C189.607 5.3316 188.914 4.41024 188.063 3.6332C186.151 1.87774 183.785 1 180.966 1C178.23 0.997659 175.885 1.88565 173.931 3.66399C171.977 5.44232 171 7.60776 171 10.1603C170.997 11.3482 171.235 12.5253 171.703 13.6249ZM173.421 36.6268V102H188.44V36.6268H173.421Z" fill="#0078FF"/>
<path fill-rule="evenodd" clip-rule="evenodd" d="M193.216 101.995C193.017 75.54 193.02 56.0186 193 49.7749C193 48.8439 192.987 46.2518 194.31 43.4008C195.947 39.8733 198.693 37.9559 199.696 37.3173C202.09 35.804 204.867 35.0002 207.703 35L207.732 46.391C209.521 42.8151 212.33 40.0409 216.16 38.0686C219.989 36.0963 223.899 35.1104 227.889 35.111C235.87 35.111 242.05 37.5983 246.43 42.5728C250.81 47.5474 253 54.6449 253 63.8654V101.996H238.484V65.6269C238.484 60.4768 237.245 56.4772 234.767 53.6282C232.288 50.7792 228.918 49.3548 224.654 49.3548C219.839 49.3548 215.814 50.7792 212.58 53.6282C209.347 56.4772 207.73 60.8869 207.73 66.8574V102L193.216 101.995Z" fill="#0078FF"/>
<path fill-rule="evenodd" clip-rule="evenodd" d="M314.07 70.7365L324.818 60.5954C325.567 63.0419 326.032 65.5654 326.207 68.117C326.385 70.8567 326.236 73.6079 325.763 76.3125C325.128 79.947 323.928 83.4605 322.207 86.7263C319.44 91.9801 316.067 95.1816 315.072 96.0927C313.678 97.3694 309.662 100.831 303.358 103.041C298.168 104.84 292.63 105.411 287.18 104.709C280.138 103.803 275.224 101.022 273.513 99.982C269.433 97.4881 265.919 94.1754 263.193 90.2543C257.875 82.5435 255.868 73.0351 257.616 63.842C259.163 55.9837 263.402 48.9058 269.609 43.8204C274.299 39.9798 278.787 38.3686 280.251 37.8822C285.009 36.2997 289.023 36.0991 291.143 36.0253C292.521 35.9766 293.553 36.0105 294.009 36.0253C296.879 36.1121 327.256 36.0253 327.256 36.0253C329.455 36.0175 332.832 36.0114 337 36.0253C335.951 38.4772 334.443 40.7073 332.556 42.5958C330.956 44.1598 329.118 45.4614 327.11 46.4521C325.74 47.132 324.298 47.6589 322.812 48.0233C321.919 48.2459 321.007 48.3895 320.089 48.4524C319.512 48.4824 318.934 48.4824 318.357 48.4524C317.225 48.4324 315.066 48.4202 310.63 48.4524C310.63 48.4524 295.571 48.4524 292.625 48.3785C291.782 48.358 290.939 48.3832 290.098 48.4541C289.712 48.4862 289.296 48.5323 288.852 48.5948C286.011 49.0002 283.27 49.9263 280.767 51.3264C275.39 54.3819 272.812 58.927 272.085 60.3079C271.174 62.0389 268.42 67.8321 269.985 75.2034C271.337 81.5724 275.139 85.4669 276.671 86.8757C283.096 92.7937 292.401 94.4144 300.459 91.0187C302.067 90.3412 307.877 87.673 311.431 81.0739C313.133 77.8904 314.039 74.3439 314.07 70.7365Z" fill="#0078FF"/>
<path fill-rule="evenodd" clip-rule="evenodd" d="M292.764 49H293.051C295.819 49.0164 304.243 49.0228 324 49C322.919 50.9444 321.568 52.7109 319.992 54.2422C316.896 57.2477 313.82 58.4662 313.115 58.7349C310.114 59.8779 307.565 59.9189 306.236 59.9334C293.461 60.0427 282.666 59.999 275 59.9334C275.174 59.5782 275.419 59.0928 275.755 58.5391C276.039 58.0682 276.863 56.7613 278.468 55.1694C279.514 54.1311 281.191 52.4681 283.884 51.0974C287.847 49.0756 291.438 49.0091 292.764 49Z" fill="#00E89D"/>
<path fill-rule="evenodd" clip-rule="evenodd" d="M273.023 61L311 61.0091C309.984 62.513 308.78 63.8704 307.42 65.046C304.734 67.3651 302.131 68.3456 300.917 68.7931C299.883 69.1856 298.82 69.4862 297.737 69.6916C296.316 69.9577 295.249 69.9813 292.534 69.9914C290.236 70.0005 289.086 70.005 288.052 69.9914H271C271.075 66.8826 271.763 63.8227 273.021 61L273.023 61Z" fill="#00E89D"/>
<path fill-rule="evenodd" clip-rule="evenodd" d="M324 117C323.49 118.349 322.895 119.665 322.216 120.941C319.506 126.04 316.161 129.202 315.057 130.197C313.658 131.458 309.629 134.879 303.303 137.064C298.096 138.842 292.538 139.406 287.07 138.712C280.004 137.817 275.073 135.069 273.356 134.041C269.263 131.576 265.736 128.302 263.001 124.428C262.273 123.373 261.6 122.282 260.985 121.161C260.241 119.813 259.578 118.424 259 117.001H273.16C274.057 118.516 275.159 119.905 276.435 121.13C280.894 125.407 286.153 126.337 287.91 126.624C292.065 127.298 296.329 126.822 300.224 125.251C306.142 122.847 309.288 118.649 310.398 117L324 117Z" fill="#0078FF"/>
<path fill-rule="evenodd" clip-rule="evenodd" d="M17 37H32.5333L50.8964 81.6484L69.3979 37H85L44.1323 134H28.876L31.7049 127.09L43.1663 99.099C35.4395 80.762 27.7134 62.4248 19.9877 44.0873L17 37Z" fill="#0078FF"/>
<path fill-rule="evenodd" clip-rule="evenodd" d="M0 102V1H14V102H0Z" fill="#0078FF"/>
</svg>
