<svg width="18" height="18" viewBox="0 0 18 18" fill="none" xmlns="http://www.w3.org/2000/svg">
<path fill-rule="evenodd" clip-rule="evenodd" d="M13.0627 13.7636C13.0627 14.3007 12.6134 14.7366 12.0565 14.7366H2.00625C1.4493 14.7366 1 14.3007 1 13.7636C1 11.8176 2.9432 9.99897 4.92877 9.28212C3.78127 8.59626 3.00979 7.37671 3.00979 5.97677V5.00306C3.00979 2.85251 4.81241 1.10757 7.03205 1.10757C9.2517 1.10757 11.0543 2.85251 11.0543 5.00306V5.97607C11.0543 7.37741 10.2821 8.59556 9.13531 9.28212C11.1202 9.99964 13.0627 11.8176 13.0627 13.7636H13.0627Z" fill="#C0C4CC"/>
<path fill-rule="evenodd" clip-rule="evenodd" d="M14.3723 13.7092H16.3734C16.7991 13.7092 17.1429 13.3759 17.1429 12.9655C17.1429 11.4767 15.6564 10.0871 14.1389 9.53896C15.016 9.01424 15.6066 8.08186 15.6066 7.01037V6.26529C15.6066 4.62088 14.2284 3.28634 12.5307 3.28634C12.3195 3.28634 12.1137 3.307 11.9139 3.34625C12.1581 3.84894 12.2946 4.41016 12.2946 5.00236V5.97538C12.2946 7.37671 11.9092 8.44062 10.8989 9.28142C12.7708 9.75174 14.3434 11.7797 14.3723 13.7092V13.7092Z" fill="#C0C4CC"/>
</svg>
