<svg width="32" height="32" viewBox="0 0 32 32" fill="none" xmlns="http://www.w3.org/2000/svg">
<circle cx="16" cy="16" r="16" fill="#0078FF"/>
<path fill-rule="evenodd" clip-rule="evenodd" d="M22.14 21.87L19.35 24.65C19.16 24.84 18.84 24.84 18.65 24.64L15.86 21.86C15.54 21.55 15.76 21.01 16.21 21.01H18V15C18 14.45 18.45 14 19 14C19.55 14 20 14.45 20 15V21.02H21.79C22.23 21.02 22.46 21.56 22.14 21.87ZM13.35 7.36L16.14 10.14C16.46 10.45 16.24 10.99 15.79 10.99H14V17C14 17.55 13.55 18 13 18C12.45 18 12 17.55 12 17V10.99H10.2C9.75997 10.99 9.52997 10.45 9.84997 10.14L12.64 7.36C12.84 7.17 13.15 7.17 13.35 7.36Z" fill="white"/>
</svg>
