<svg width="18" height="19" viewBox="0 0 18 19" fill="none" xmlns="http://www.w3.org/2000/svg">
<path fill-rule="evenodd" clip-rule="evenodd" d="M12.6941 3.59986L15.2522 6.21878C15.7395 6.71763 15.7395 7.46589 15.2522 7.96473C15.0086 8.21415 14.765 8.33886 14.3995 8.33886H2.21814C1.48725 8.33886 1 7.84002 1 7.09176C1 6.34349 1.48725 5.84465 2.21814 5.84465H11.476L10.9887 5.34581C10.5015 4.84697 10.5015 4.0987 10.9887 3.59986C11.476 3.10102 12.2069 3.10102 12.6941 3.59986ZM3.92353 15.5721L1.36544 12.9532C0.878186 12.4543 0.878186 11.7061 1.36544 11.2072C1.60907 10.9578 1.8527 10.8331 2.21814 10.8331H14.3995C15.1304 10.8331 15.6176 11.3319 15.6176 12.0802C15.6176 12.8284 15.1304 13.3273 14.3995 13.3273H5.14167L5.62892 13.8261C6.11618 14.325 6.11618 15.0732 5.62892 15.5721C5.14167 16.0709 4.41078 16.0709 3.92353 15.5721Z" fill="#C0C4CC"/>
</svg>
