<svg width="14" height="20" viewBox="0 0 14 20" fill="none" xmlns="http://www.w3.org/2000/svg">
<path fill-rule="evenodd" clip-rule="evenodd" d="M0 7.06625C0 3.17981 3.17981 0 7.06625 0C10.9527 0 14.1325 3.17981 13.9912 7.06625C13.9912 8.12618 13.7792 9.18612 13.2845 10.1754C12.2246 12.2953 7.77287 19.1495 7.56088 19.4322C7.49022 19.6442 7.20757 19.7855 6.99558 19.7855C6.7836 19.7855 6.57161 19.6442 6.43028 19.4322C6.39248 19.3566 6.04124 18.8108 5.52665 18.0112C4.11739 15.8215 1.48305 11.7282 0.706625 10.1754C0.28265 9.25678 0 8.19685 0 7.06625ZM7.86143 16.5077C9.3191 14.2615 11.5107 10.8843 12.1539 9.53943C12.5073 8.76215 12.7192 7.9142 12.7192 7.06625C12.7192 3.9571 10.1754 1.41325 7.06625 1.41325C3.9571 1.41325 1.41325 3.9571 1.41325 7.06625C1.41325 7.9142 1.62524 8.76215 1.97855 9.53943C2.8265 11.094 5.79432 15.7577 7.06625 17.7363C7.28564 17.395 7.55759 16.9759 7.86143 16.5077Z" fill="#C0C4CC"/>
<path fill-rule="evenodd" clip-rule="evenodd" d="M3.53314 7.06625C3.53314 5.0877 5.08772 3.53313 7.06627 3.53313C9.04481 3.53313 10.5994 5.0877 10.5994 7.06625C10.5994 9.0448 9.04481 10.5994 7.06627 10.5994C5.08772 10.5994 3.53314 9.0448 3.53314 7.06625ZM4.94639 7.06625C4.94639 8.26751 5.865 9.18612 7.06627 9.18612C8.26753 9.18612 9.18614 8.26751 9.18614 7.06625C9.18614 5.86499 8.26753 4.94638 7.06627 4.94638C5.865 4.94638 4.94639 5.86499 4.94639 7.06625Z" fill="#C0C4CC"/>
</svg>
